<svg width="19" height="25" viewBox="0 0 19 25" fill="none" xmlns="http://www.w3.org/2000/svg">
<path fill-rule="evenodd" clip-rule="evenodd" d="M0.322971 2.98893H4.23661L4.23143 2.90958V0.840319C4.23143 0.378449 4.63903 0 5.1399 0C5.63903 0 6.04836 0.380483 6.04836 0.840319V2.90958L6.04318 2.98893H12.7081L12.7029 2.90958V0.840319C12.7029 0.378449 13.1105 0 13.6097 0C14.1088 0 14.5181 0.380483 14.5181 0.840319V2.90958L14.513 2.98893H18.677C18.8549 2.98893 19 3.15984 19 3.36941V7.32888C19 7.53846 18.8549 7.70937 18.677 7.70937H0.322971C0.145078 7.70733 0 7.53642 0 7.32685V3.36738C0 3.15781 0.145078 2.98893 0.322971 2.98893ZM0.0811744 8.58428H18.9206C18.9655 8.58428 19 8.627 19 8.67787V24.9064C19 24.9573 18.9637 25 18.9206 25H0.0811744C0.0379965 25 0 24.9573 0 24.9064V8.6799C0 8.627 0.0362694 8.58428 0.0811744 8.58428ZM16.7997 10.7349H14.4335C14.2902 10.7349 14.1744 10.8631 14.1744 11.0198V13.6119C14.1744 13.7686 14.2902 13.8968 14.4335 13.8968H16.8014C16.9447 13.8968 17.0622 13.7686 17.0622 13.6119V11.0198C17.0604 10.8631 16.943 10.7349 16.7997 10.7349ZM2.11399 15.2458H4.48014C4.62349 15.2458 4.74093 15.374 4.74093 15.5306V18.1228C4.74093 18.2795 4.62349 18.4077 4.48014 18.4077H2.19516C2.05181 18.4077 1.9361 18.2795 1.9361 18.1228V15.437C1.9361 15.2804 2.05354 15.1522 2.19516 15.1522L2.11399 15.2458ZM2.11399 19.7587H4.48014C4.62349 19.7587 4.74093 19.8869 4.74093 20.0435V22.6357C4.74093 22.7924 4.62349 22.9206 4.48014 22.9206H2.19344C2.05009 22.9206 1.93437 22.7924 1.93437 22.6357V20.0435C1.93437 19.8869 2.05181 19.7587 2.19344 19.7587H2.11399ZM2.11399 10.7349H4.48014C4.62349 10.7349 4.74093 10.8631 4.74093 11.0198V13.6119C4.74093 13.7686 4.62349 13.8968 4.48014 13.8968H2.19344C2.05009 13.8968 1.93437 13.7686 1.93437 13.6119V11.0198C1.93437 10.8631 2.05181 10.7349 2.19344 10.7349H2.11399ZM6.22107 10.7349H8.58895C8.7323 10.7349 8.84801 10.8631 8.84801 11.0198V13.6119C8.84801 13.7686 8.73057 13.8968 8.58895 13.8968H6.22107C6.07772 13.8968 5.96028 13.7686 5.96028 13.6119V11.0198C5.96028 10.8631 6.07772 10.7349 6.22107 10.7349ZM6.22107 15.2458H8.58895C8.7323 15.2458 8.84801 15.374 8.84801 15.5306V18.1228C8.84801 18.2795 8.73057 18.4077 8.58895 18.4077H6.22107C6.07772 18.4077 5.96028 18.2795 5.96028 18.1228V15.437C5.96028 15.2804 6.07772 15.1522 6.22107 15.1522V15.2458ZM6.22107 19.7587H8.58895C8.7323 19.7587 8.84801 19.8869 8.84801 20.0435V22.6357C8.84801 22.7924 8.73057 22.9206 8.58895 22.9206H6.22107C6.07772 22.9206 5.96028 22.7924 5.96028 22.6357V20.0435C5.96028 19.8869 6.07772 19.7587 6.22107 19.7587ZM10.3264 10.7349H12.6943C12.8377 10.7349 12.9551 10.8631 12.9551 11.0198V13.6119C12.9551 13.7686 12.8377 13.8968 12.6943 13.8968H10.3264C10.1831 13.8968 10.0656 13.7686 10.0656 13.6119V11.0198C10.0674 10.8631 10.1831 10.7349 10.3264 10.7349ZM10.3264 15.2458H12.6943C12.8377 15.2458 12.9551 15.374 12.9551 15.5306V18.1228C12.9551 18.2795 12.8377 18.4077 12.6943 18.4077H10.3264C10.1831 18.4077 10.0656 18.2795 10.0656 18.1228V15.437C10.0656 15.2804 10.1831 15.1522 10.3264 15.1522V15.2458ZM16.7997 15.2458H14.4335C14.2902 15.2458 14.1744 15.374 14.1744 15.5306V18.1228C14.1744 18.2795 14.2902 18.4077 14.4335 18.4077H16.8014C16.9447 18.4077 17.0622 18.2795 17.0622 18.1228V15.435C17.0622 15.2783 16.9447 15.1502 16.8014 15.1502L16.7997 15.2458ZM16.7997 19.7587H14.4335C14.2902 19.7587 14.1744 19.8869 14.1744 20.0435V22.6357C14.1744 22.7924 14.2902 22.9206 14.4335 22.9206H16.8014C16.9447 22.9206 17.0622 22.7924 17.0622 22.6357V19.9479C17.0622 19.7912 16.9447 19.6631 16.8014 19.6631L16.7997 19.7587ZM10.3264 19.7587H12.6943C12.8377 19.7587 12.9551 19.8869 12.9551 20.0435V22.6357C12.9551 22.7924 12.8377 22.9206 12.6943 22.9206H10.3264C10.1831 22.9206 10.0656 22.7924 10.0656 22.6357V20.0435C10.0674 19.8869 10.1831 19.7587 10.3264 19.7587ZM1.21071 9.70741H17.9499C18.0397 9.70741 18.1123 9.79694 18.1123 9.89867V23.6876C18.1123 23.7894 18.0363 23.8789 17.9499 23.8789H1.05009C0.963731 23.8789 0.887737 23.7934 0.887737 23.6876V10.0879C0.887737 9.87833 1.03282 9.70741 1.21071 9.70741ZM13.6097 5.98193C14.1088 5.98193 14.5181 5.60145 14.5181 5.14161V3.07439L14.513 2.99097H12.7081L12.7029 3.07439V5.14161C12.7029 5.60348 13.1105 5.98193 13.6097 5.98193ZM5.1399 5.98193C5.63903 5.98193 6.04836 5.60145 6.04836 5.14161V3.07439L6.04318 2.99097H4.23661L4.23143 3.07439V5.14161C4.23143 5.60348 4.63903 5.98193 5.1399 5.98193Z" fill="#979797"/>
</svg>
