<svg width="25" height="26" viewBox="0 0 25 26" fill="none" xmlns="http://www.w3.org/2000/svg">
<path d="M1.79345 8.40086C1.78563 8.26183 1.80468 8.11879 1.85497 7.97976C2.72899 5.58317 4.28173 3.5861 6.24071 2.19081C8.19775 0.796521 10.5571 0 13.0478 0C16.3481 0 19.3364 1.37572 21.499 3.59865C23.6616 5.82158 25 8.89322 25 12.2856C25 15.2905 23.9448 18.0479 22.1938 20.187C20.4165 22.3588 17.9224 23.8891 15.0884 24.391C14.8223 24.4377 14.5625 24.3724 14.355 24.2279C14.6479 23.6532 14.8223 22.9907 14.8144 22.3377C17.146 21.9081 19.1953 20.6443 20.6572 18.858C22.1074 17.0853 22.9819 14.7926 22.9819 12.2856C22.9819 9.4659 21.8696 6.91271 20.0723 5.06521C18.2749 3.2177 15.791 2.07437 13.0478 2.07437C10.9712 2.07437 9.0078 2.73537 7.38378 3.89226C5.86376 4.97487 4.63866 6.49162 3.89208 8.3055C3.19726 8.19106 2.47411 8.20762 1.79345 8.40086ZM10.2388 11.5794V15.6478H10.8569C11.0771 15.6478 11.228 15.6202 11.3091 15.5655C11.3906 15.5103 11.4311 15.3848 11.4311 15.1881V11.5794H13.1714V14.6245C13.1714 15.1158 13.1396 15.5118 13.0757 15.8125C13.0117 16.1131 12.8931 16.3676 12.7187 16.5759C12.5449 16.7841 12.3071 16.9287 12.0054 17.0095C11.7036 17.0903 11.312 17.131 10.8306 17.131C10.3491 17.131 9.95898 17.0903 9.66015 17.0095C9.36181 16.9287 9.12499 16.7841 8.95116 16.5759C8.77734 16.3676 8.65819 16.1131 8.59423 15.8125C8.53075 15.5118 8.49853 15.1158 8.49853 14.6245V11.5794H10.2388ZM14.02 16.9056L14.2637 15.4742C14.7969 15.6072 15.2773 15.6739 15.7036 15.6739C16.1299 15.6739 16.4736 15.6564 16.7349 15.6217V15.1881L15.9517 15.1188C15.2436 15.0551 14.7578 14.8859 14.4941 14.6114C14.23 14.3364 14.0981 13.9303 14.0981 13.3923C14.0981 12.6525 14.2593 12.1435 14.581 11.866C14.9028 11.5884 15.4497 11.4494 16.2212 11.4494C16.9927 11.4494 17.689 11.5217 18.3096 11.6662L18.0923 13.054C17.5527 12.9677 17.1206 12.924 16.7954 12.924C16.4707 12.924 16.1953 12.9386 15.9687 12.9677V13.3923L16.5957 13.453C17.3555 13.5283 17.8804 13.709 18.1704 13.9951C18.4604 14.2817 18.6055 14.6792 18.6055 15.1881C18.6055 15.5525 18.5561 15.8601 18.4575 16.1116C18.3589 16.3636 18.2417 16.5543 18.105 16.6843C17.9687 16.8143 17.7759 16.9141 17.5264 16.9834C17.2769 17.0532 17.0581 17.0948 16.8696 17.1094C16.6811 17.1239 16.4302 17.131 16.1167 17.131C15.3628 17.131 14.6636 17.0557 14.02 16.9056ZM10.6318 9.01468L10.7051 9.85738C10.5 9.94471 10.2432 9.98838 9.93359 9.98838C9.6245 9.98838 9.37646 9.95475 9.18896 9.88749C9.00195 9.82074 8.85448 9.71584 8.74706 9.5718C8.64013 9.42775 8.56493 9.25861 8.52245 9.06487C8.48046 8.87064 8.45898 8.63123 8.45898 8.34715C8.45898 8.06257 8.48046 7.82266 8.52245 7.62692C8.56493 7.43118 8.64013 7.26154 8.74706 7.11749C8.95556 6.83994 9.33788 6.70091 9.89452 6.70091C10.0181 6.70091 10.1641 6.71346 10.3315 6.73855C10.4995 6.76365 10.6235 6.79477 10.7051 6.83141L10.5586 7.59932C10.3472 7.55264 10.1533 7.52905 9.97753 7.52905C9.80175 7.52905 9.67968 7.54561 9.61132 7.57924C9.54296 7.61287 9.50878 7.67962 9.50878 7.78V9.09499C9.63573 9.12159 9.76464 9.13514 9.89452 9.13514C10.1714 9.13514 10.417 9.09499 10.6318 9.01468ZM11.9209 9.91309H10.8906L11.6816 6.7762H13.1904L13.981 9.91309H12.9512L12.8389 9.41621H12.0332L11.9209 9.91309ZM12.3125 7.73985L12.1318 8.61818H12.7353L12.5591 7.73985H12.3125ZM16.2661 9.91309H14.3135V6.7762H15.2895V9.11005H16.2661V9.91309ZM18.6343 9.91309H16.6811V6.7762H17.6577V9.11005H18.6343V9.91309ZM3.70849 16.1593C4.06591 17 4.49218 17.8166 5.062 18.587C5.68114 19.4267 6.47802 20.2167 7.54345 20.9344C7.74511 21.0659 7.96728 20.8967 8.12499 20.7662C8.21728 20.6895 8.33544 20.5645 8.46093 20.4265C8.95605 19.8884 9.56933 19.2214 10.2886 19.6696C10.3042 19.6791 10.3164 19.6902 10.332 19.6997L12.7012 21.4759C12.7085 21.481 12.7163 21.491 12.7236 21.496C13.0322 21.7685 13.1309 22.148 13.0908 22.559C12.9814 23.5945 12.1909 24.4572 11.2529 24.7744C10.7588 24.9441 10.2222 25.0058 9.71044 25.0254C8.90722 25.057 8.17431 24.8979 7.44237 24.5737C6.72655 24.255 6.02196 23.7832 5.26171 23.1744L5.20556 23.1282C4.85644 22.8466 4.47997 22.5445 4.1162 22.1977C2.78319 20.9088 1.47802 19.118 0.704578 17.2218C0.0556522 15.6303 -0.213391 13.9594 0.190906 12.4412C0.414051 11.609 0.84911 10.8777 1.51903 10.4381C2.1035 10.0526 2.85302 9.89 3.78075 10.0802C3.88769 10.1003 3.97704 10.1756 4.01708 10.276L5.33886 13.2723C5.54247 13.6146 5.53905 13.9303 5.37646 14.2295C5.24169 14.4744 4.99999 14.6857 4.68065 14.8739C4.58544 14.9407 4.47313 15.0064 4.35595 15.0762C4.0664 15.2463 3.74706 15.436 3.64257 15.6795C3.55858 15.8747 3.6328 15.9811 3.70849 16.1593Z" fill="#1EB7CF"/>
</svg>
