<svg width="30" height="23" viewBox="0 0 30 23" fill="none" xmlns="http://www.w3.org/2000/svg">
<path fill-rule="evenodd" clip-rule="evenodd" d="M11.7012 0.786184H21.743L24.0307 4.96825H28.7443C28.9952 4.96825 29.2 5.18563 29.2 5.43608V21.758C29.2 22.0084 28.9906 22.2258 28.7443 22.2258H1.37185C1.12788 22.2234 0.916138 22.0131 0.916138 21.758V5.43608C0.916138 5.17854 1.12098 4.96825 1.37185 4.96825H3.49158V3.46791H6.11076V4.96825H8.95549C9.54699 3.76797 10.1385 2.57006 10.73 1.36978C11.089 0.639693 10.8911 0.786184 11.7012 0.786184ZM26.2494 7.03566C26.9997 7.03566 27.6073 7.65943 27.6073 8.42968C27.6073 9.19994 26.9997 9.8237 26.2494 9.8237C25.4991 9.8237 24.8915 9.19994 24.8915 8.42968C24.8938 7.65943 25.5014 7.03566 26.2494 7.03566ZM16.2537 8.65887C18.5254 8.65887 20.3689 10.5514 20.3689 12.8835C20.3689 15.2155 18.5254 17.1081 16.2537 17.1081C13.9821 17.1081 12.1385 15.2155 12.1385 12.8835C12.1385 10.5514 13.9821 8.65887 16.2537 8.65887ZM16.2537 5.90863C20.0076 5.90863 23.0502 9.03218 23.0502 12.8858C23.0502 16.7371 20.0076 19.863 16.2537 19.863C12.5022 19.863 9.45723 16.7371 9.45723 12.8858C9.45953 9.03218 12.5022 5.90863 16.2537 5.90863Z" fill="#979797"/>
</svg>
