<svg width="24" height="24" viewBox="0 0 24 24" fill="none" xmlns="http://www.w3.org/2000/svg">
<g clip-path="url(#clip0_229_1365)">
<path fill-rule="evenodd" clip-rule="evenodd" d="M8.41823 10.9951H9.22644V9.22784C9.22644 8.27441 9.6034 7.40774 10.2097 6.77954V6.77873C10.8161 6.15073 11.6534 5.76058 12.5745 5.76058C13.4952 5.76058 14.3321 6.15073 14.9386 6.77873L14.9394 6.77954C15.5456 7.40754 15.9226 8.27461 15.9226 9.22764V10.9949L16.5665 10.9951C16.7099 10.9951 16.8273 11.1167 16.8273 11.2652V16.9694C16.8273 17.1178 16.7097 17.2394 16.5663 17.2394H8.41823C8.27487 17.2394 8.15729 17.1176 8.15729 16.9694V11.2652C8.15729 11.1167 8.27468 10.9951 8.41823 10.9951ZM3.25823 4.49082C2.91037 4.9372 2.58908 5.41128 2.26974 5.99904C1.1004 8.15204 0.605081 10.5965 0.80684 12.9855C1.00411 15.319 1.86779 17.6024 3.41917 19.5125C3.9764 20.1986 4.57425 20.8033 5.20277 21.3263C7.37311 23.1335 9.94422 24.0246 12.5085 23.9993C15.0738 23.9741 17.6275 23.0318 19.7634 21.1716C20.3863 20.6292 20.9703 20.0133 21.5047 19.325C22.7539 17.7157 23.5578 15.828 23.8623 13.8362C24.1615 11.88 23.9785 9.8257 23.2629 7.83835C22.5818 5.94625 21.5414 4.26146 20.1818 2.94256C18.8859 1.68534 17.3035 0.759415 15.4681 0.299892C14.8933 0.155886 14.3081 0.0618373 13.712 0.0219931C13.114 -0.0178512 12.5024 -0.00450236 11.8759 0.0672982C11.4831 0.112199 11.2003 0.477876 11.2434 0.884611C11.2868 1.29114 11.6399 1.58421 12.0325 1.53931C12.5761 1.47702 13.1058 1.46529 13.6226 1.49987C14.1409 1.53446 14.6441 1.61475 15.1325 1.73732C16.7158 2.13354 18.0826 2.93346 19.2025 4.02038C20.4013 5.18354 21.3211 6.67497 21.9254 8.3541C22.5527 10.0961 22.7135 11.8946 22.4519 13.6044C22.1863 15.3416 21.4838 16.99 20.3908 18.3977C19.9086 19.0188 19.3906 19.5667 18.8455 20.0414C16.9722 21.673 14.7378 22.4994 12.4974 22.5217C10.2565 22.5437 8.00495 21.7608 6.09809 20.1735C5.53266 19.7026 5.00023 19.1656 4.51039 18.5623C3.1594 16.899 2.40666 14.9031 2.234 12.8583C2.05665 10.7599 2.49123 8.61339 3.5176 6.72372C3.82737 6.15336 4.14476 5.69808 4.49671 5.25919L4.60082 8.23153C4.61468 8.63968 4.94555 8.95884 5.33949 8.94428C5.73344 8.92971 6.04184 8.5873 6.02778 8.17935L5.86176 3.44273C5.8479 3.03438 5.51704 2.71542 5.12309 2.72978C5.09848 2.7308 5.07426 2.73302 5.05043 2.73626V2.73565L0.616604 3.38064C0.225781 3.43667 -0.0472684 3.81043 0.00683359 4.21515C0.0607403 4.62006 0.421681 4.90281 0.812699 4.84679L3.25823 4.49082ZM10.5272 10.9951H14.6216V9.20842C14.6216 8.62532 14.3911 8.09521 14.0206 7.71113L14.0202 7.71133C13.6493 7.32725 13.1372 7.08838 12.5745 7.08838C12.0114 7.08838 11.4995 7.32704 11.1284 7.71092C10.7577 8.09501 10.5274 8.62532 10.5274 9.20842V10.9951H10.5272ZM12.5909 14.1163L13.0042 16.0912L11.8716 16.096L12.2038 14.0947C11.8944 13.9918 11.67 13.6916 11.67 13.3369C11.67 12.8978 12.0138 12.5418 12.438 12.5418C12.8618 12.5418 13.2058 12.8978 13.2058 13.3369C13.2056 13.7219 12.9417 14.0431 12.5909 14.1163Z" fill="#1EB7CF"/>
</g>
<defs>
<clipPath id="clip0_229_1365">
<rect width="24" height="24" fill="white"/>
</clipPath>
</defs>
</svg>
