<svg width="48" height="48" viewBox="0 0 48 48" fill="none" xmlns="http://www.w3.org/2000/svg">
<rect width="48" height="48" rx="8" fill="#1C3C6C"/>
<g clip-path="url(#clip0_326_1872)">
<path d="M35.2969 14.8125H31.6636C31.337 13.2097 29.9166 12 28.2188 12C26.5209 12 25.1005 13.2097 24.7739 14.8125H12.7031C12.3148 14.8125 12 15.1273 12 15.5156C12 15.9039 12.3148 16.2188 12.7031 16.2188H24.7739C25.1005 17.8215 26.5209 19.0312 28.2188 19.0312C29.9166 19.0312 31.337 17.8215 31.6636 16.2188H35.2969C35.6852 16.2188 36 15.9039 36 15.5156C36 15.1273 35.6852 14.8125 35.2969 14.8125ZM28.2188 17.625C27.0558 17.625 26.1097 16.6791 26.1094 15.5162C26.1094 15.516 26.1094 15.5159 26.1094 15.5156C26.1094 15.5154 26.1094 15.5152 26.1094 15.515C26.1097 14.3522 27.0558 13.4062 28.2188 13.4062C29.3819 13.4062 30.3281 14.3525 30.3281 15.5156C30.3281 16.6787 29.3819 17.625 28.2188 17.625Z" fill="white"/>
<path d="M35.2969 23.2969H23.2261C22.8995 21.6941 21.4791 20.4844 19.7812 20.4844C18.0834 20.4844 16.663 21.6941 16.3364 23.2969H12.7031C12.3148 23.2969 12 23.6117 12 24C12 24.3883 12.3148 24.7031 12.7031 24.7031H16.3364C16.663 26.3059 18.0834 27.5156 19.7812 27.5156C21.4791 27.5156 22.8995 26.3059 23.2261 24.7031H35.2969C35.6852 24.7031 36 24.3883 36 24C36 23.6117 35.6852 23.2969 35.2969 23.2969ZM19.7812 26.1094C18.6183 26.1094 17.6722 25.1634 17.6719 24.0006C17.6719 24.0004 17.6719 24.0002 17.6719 24C17.6719 23.9998 17.6719 23.9996 17.6719 23.9994C17.6722 22.8366 18.6183 21.8906 19.7812 21.8906C20.9444 21.8906 21.8906 22.8369 21.8906 24C21.8906 25.1631 20.9444 26.1094 19.7812 26.1094Z" fill="white"/>
<path d="M35.2969 31.7812H31.6636C31.337 30.1785 29.9166 28.9688 28.2188 28.9688C26.5209 28.9688 25.1005 30.1785 24.7739 31.7812H12.7031C12.3148 31.7812 12 32.0961 12 32.4844C12 32.8727 12.3148 33.1875 12.7031 33.1875H24.7739C25.1005 34.7902 26.5209 36 28.2188 36C29.9166 36 31.337 34.7902 31.6636 33.1875H35.2969C35.6852 33.1875 36 32.8727 36 32.4844C36 32.0961 35.6852 31.7812 35.2969 31.7812ZM28.2188 34.5938C27.0558 34.5938 26.1097 33.6478 26.1094 32.485C26.1094 32.4848 26.1094 32.4846 26.1094 32.4844C26.1094 32.4841 26.1094 32.484 26.1094 32.4838C26.1097 31.3209 27.0558 30.375 28.2188 30.375C29.3819 30.375 30.3281 31.3213 30.3281 32.4844C30.3281 33.6475 29.3819 34.5938 28.2188 34.5938Z" fill="white"/>
</g>
<defs>
<clipPath id="clip0_326_1872">
<rect width="24" height="24" fill="white" transform="translate(12 12)"/>
</clipPath>
</defs>
</svg>
