<svg width="24" height="32" viewBox="0 0 24 32" fill="none" xmlns="http://www.w3.org/2000/svg">
<path d="M12 23.5908C9.18379 23.5908 6.90204 25.8726 6.90204 28.6886H17.0979C17.0979 25.8726 14.8163 23.5908 12 23.5908Z" fill="#D9C824"/>
<path d="M12 20.1154C12.563 20.1154 13.0193 19.659 13.0193 19.096C13.0193 18.533 12.563 18.0767 12 18.0767C11.437 18.0767 10.9806 18.533 10.9806 19.096C10.9806 19.659 11.437 20.1154 12 20.1154Z" fill="#D9C824"/>
<path d="M12 7.69114C10.28 5.97177 7.48892 5.97177 5.76892 7.69114C5.76892 11.1329 8.55836 13.9222 12 13.9222C15.4417 13.9222 18.231 11.133 18.231 7.69114C16.511 9.41339 13.7198 9.41339 12 7.69114Z" fill="#D9C824"/>
<path d="M21.0515 29.2812H2.9483V24.459C2.9483 20.6518 5.32255 17.3118 8.77824 15.999C5.31805 14.6814 2.9483 11.3444 2.9483 7.54094V2.71875H21.0515V7.541C21.0515 11.3488 18.6779 14.6882 15.2224 16.001C18.6817 17.3176 21.0515 20.6543 21.0515 24.4591V29.2812ZM4.13362 28.0962H19.8664V24.4592C19.8664 20.6766 17.1712 17.4256 13.4578 16.7298L13.4587 16.7227C13.1482 16.6242 12.9301 16.332 12.9301 16C12.9301 15.6741 13.1399 15.3871 13.4409 15.2834L13.4389 15.2741C13.4404 15.2736 13.4417 15.2736 13.4429 15.2732H13.4434C17.1734 14.5723 19.8663 11.3223 19.8663 7.541V3.90381H4.13343V7.54075C4.13343 11.3208 6.82624 14.5708 10.5365 15.2692L10.5603 15.2739L10.5587 15.2827C10.8598 15.3864 11.0697 15.6739 11.0697 15.9998C11.0697 16.3254 10.8595 16.6129 10.5582 16.7169L10.5603 16.7257L10.5314 16.7312C6.82624 17.4286 4.13343 20.679 4.13343 24.4589V28.0961H4.13362V28.0962Z" fill="#242D3C"/>
<path d="M21.7427 3.90381H2.25743C1.7363 3.90381 1.24605 3.70106 0.876927 3.33306C0.507989 2.963 0.305115 2.47288 0.305115 1.95225C0.305115 1.4305 0.50799 0.940437 0.876489 0.572062C1.24543 0.203187 1.73568 0 2.25743 0H21.7427C22.2644 0 22.7547 0.203187 23.1236 0.572187C23.4919 0.940375 23.6948 1.43056 23.6948 1.95238C23.6948 2.47319 23.492 2.96294 23.1239 3.33206C22.7542 3.70112 22.2638 3.90381 21.7427 3.90381ZM2.25743 1.18512C2.0523 1.18512 1.85968 1.26513 1.71436 1.41006C1.56986 1.55456 1.49036 1.747 1.49036 1.95231C1.49036 2.15694 1.57018 2.34975 1.71518 2.49487C1.85936 2.63888 2.05243 2.71869 2.25755 2.71869H21.7428C21.9477 2.71869 22.1409 2.63888 22.2862 2.49388C22.43 2.34938 22.5099 2.15694 22.5099 1.95225C22.5099 1.74713 22.4304 1.5545 22.2857 1.41C22.1405 1.26487 21.9479 1.18506 21.7428 1.18506C21.7429 1.18512 2.25743 1.18512 2.25743 1.18512Z" fill="#242D3C"/>
<path d="M21.7427 32.0001H2.25743C1.73568 32.0001 1.24543 31.7967 0.876489 31.4279C0.50799 31.0596 0.305115 30.5695 0.305115 30.0477C0.305115 29.5271 0.507989 29.0371 0.875989 28.6682C1.24605 28.2989 1.7363 28.0962 2.25743 28.0962H21.7427C22.2639 28.0962 22.7542 28.2991 23.123 28.6673C23.4922 29.0372 23.6948 29.5269 23.6948 30.0478C23.6948 30.5695 23.4917 31.0598 23.1234 31.4281C22.7547 31.7967 22.2643 32.0001 21.7427 32.0001ZM2.25743 29.2813C2.0523 29.2813 1.85936 29.3611 1.71393 29.5061C1.57024 29.6501 1.49043 29.8431 1.49043 30.0478C1.49043 30.2529 1.57011 30.4454 1.71443 30.59C1.85968 30.7351 2.05236 30.8149 2.25749 30.8149H21.7427C21.9477 30.8149 22.1404 30.7351 22.2853 30.59C22.4302 30.4455 22.5098 30.2531 22.5098 30.0478C22.5098 29.8433 22.43 29.6506 22.2852 29.5052C22.141 29.3612 21.9479 29.2814 21.7428 29.2814L2.25743 29.2813Z" fill="#242D3C"/>
</svg>
