<svg width="24" height="24" viewBox="0 0 24 24" fill="none" xmlns="http://www.w3.org/2000/svg">
<path d="M10.7107 9.68632L13.5607 6.83632C13.6099 6.78886 13.6491 6.73209 13.6761 6.66931C13.7031 6.60654 13.7173 6.53902 13.7179 6.47069C13.7185 6.40237 13.7055 6.33461 13.6796 6.27136C13.6537 6.20812 13.6155 6.15067 13.5672 6.10235C13.5189 6.05404 13.4614 6.01583 13.3982 5.98996C13.335 5.96409 13.2672 5.95108 13.1989 5.95168C13.1305 5.95228 13.063 5.96649 13.0002 5.99347C12.9375 6.02045 12.8807 6.05966 12.8332 6.10882L9.98324 8.95882C9.88677 9.05524 9.83255 9.18604 9.83252 9.32244C9.83248 9.45883 9.88663 9.58966 9.98306 9.68613C10.0795 9.7826 10.2103 9.83682 10.3467 9.83686C10.4831 9.83689 10.6139 9.78274 10.7104 9.68632H10.7107Z" fill="#1C3C6C"/>
<path d="M15.3641 9.26329C15.4883 9.26344 15.6097 9.22675 15.7129 9.15787C15.8162 9.08899 15.8968 8.99102 15.9443 8.87635C15.9919 8.76168 16.0044 8.63548 15.9802 8.51371C15.956 8.39194 15.8963 8.28008 15.8085 8.1923C15.7207 8.10451 15.6088 8.04475 15.4871 8.02056C15.3653 7.99638 15.2391 8.00887 15.1244 8.05644C15.0098 8.10402 14.9118 8.18455 14.8429 8.28784C14.774 8.39112 14.7373 8.51252 14.7375 8.63667C14.7377 8.8028 14.8038 8.96207 14.9212 9.07954C15.0387 9.19701 15.198 9.26309 15.3641 9.26329Z" fill="#1C3C6C"/>
<path d="M23.4855 10.7205H23.2774C23.2277 10.7204 23.1792 10.7056 23.138 10.6779C23.0968 10.6503 23.0646 10.6111 23.0456 10.5652C23.0266 10.5194 23.0216 10.4689 23.0312 10.4202C23.0408 10.3715 23.0646 10.3268 23.0996 10.2915L23.8496 9.54154C23.8974 9.49383 23.9353 9.43715 23.9612 9.37477C23.9871 9.31239 24.0004 9.24551 24.0004 9.17798C24.0004 9.11045 23.9871 9.04357 23.9612 8.98119C23.9353 8.91881 23.8974 8.86213 23.8496 8.81442L22.7396 7.70517C22.6558 7.62116 22.5454 7.56873 22.4273 7.55676C22.3092 7.5448 22.1906 7.57405 22.0916 7.63954C21.8635 7.79025 21.5959 7.87033 21.3225 7.86979C20.9812 7.86623 20.652 7.74246 20.3929 7.52025C20.1338 7.29803 19.9613 6.99159 19.9058 6.65479C19.88 6.48774 19.8885 6.31722 19.9305 6.15351C19.9725 5.9898 20.0473 5.83631 20.1502 5.70229C20.2164 5.60312 20.2462 5.48413 20.2347 5.36549C20.2231 5.24685 20.1709 5.13584 20.0869 5.05129L18.9495 3.91429C18.8657 3.83024 18.7554 3.77781 18.6374 3.76591C18.5193 3.75402 18.4007 3.78339 18.3019 3.84904C18.0734 4.00014 17.8055 4.08049 17.5316 4.08004C17.1909 4.07693 16.8622 3.95348 16.6036 3.7315C16.345 3.50951 16.1733 3.20329 16.1186 2.86692C16.0937 2.69897 16.1024 2.52773 16.1442 2.36318C16.1861 2.19862 16.2602 2.04404 16.3624 1.90842C16.4273 1.80947 16.4562 1.69118 16.4441 1.57345C16.4321 1.45572 16.3799 1.34571 16.2964 1.26192L15.1875 0.150793C15.1398 0.102989 15.083 0.0650661 15.0206 0.039192C14.9582 0.0133178 14.8913 0 14.8237 0C14.7562 0 14.6893 0.0133178 14.6269 0.039192C14.5645 0.0650661 14.5077 0.102989 14.46 0.150793L3.963 10.647C3.93979 10.6707 3.91213 10.6894 3.88162 10.7023C3.85112 10.7152 3.81836 10.7219 3.78525 10.722H0.5145C0.378306 10.722 0.247667 10.776 0.151223 10.8722C0.0547784 10.9684 0.000397068 11.0988 0 11.235V12.8048C0.000668398 12.9241 0.0425417 13.0395 0.118532 13.1315C0.194522 13.2235 0.299961 13.2864 0.417 13.3095C0.657416 13.3623 0.880077 13.4764 1.06329 13.6407C1.24651 13.8051 1.38403 14.0141 1.46246 14.2474C1.5409 14.4807 1.55757 14.7303 1.51085 14.972C1.46413 15.2136 1.35561 15.439 1.19587 15.6263C0.993563 15.859 0.713794 16.0104 0.408375 16.0527C0.293018 16.0773 0.189586 16.1408 0.115288 16.2324C0.0409894 16.324 0.000303829 16.4383 0 16.5563L0 18.1647C0.000668398 18.284 0.0425417 18.3994 0.118532 18.4914C0.194522 18.5833 0.299961 18.6462 0.417 18.6694C0.657452 18.7222 0.880141 18.8363 1.06337 19.0007C1.24659 19.1651 1.38411 19.3741 1.46251 19.6075C1.54091 19.8408 1.55752 20.0905 1.51073 20.3322C1.46393 20.5739 1.35533 20.7993 1.1955 20.9865C0.993436 21.2192 0.713953 21.3708 0.40875 21.4133C0.293449 21.4379 0.190027 21.5011 0.115669 21.5926C0.0413103 21.6841 0.000493274 21.7983 0 21.9162L0 23.4863C0 23.6227 0.0542061 23.7536 0.150694 23.8501C0.247181 23.9466 0.378046 24.0008 0.5145 24.0008H23.4855C23.622 24.0008 23.7528 23.9466 23.8493 23.8501C23.9458 23.7536 24 23.6227 24 23.4863V21.9162C23.9993 21.7965 23.9573 21.6808 23.881 21.5886C23.8047 21.4964 23.6989 21.4334 23.5815 21.4103C23.3414 21.3573 23.1191 21.243 22.9362 21.0786C22.7533 20.9142 22.6161 20.7052 22.5379 20.4721C22.4597 20.2389 22.4431 19.9895 22.4898 19.7481C22.5365 19.5067 22.645 19.2814 22.8045 19.0943C23.0068 18.8615 23.2865 18.7099 23.592 18.6675C23.7072 18.6428 23.8104 18.5795 23.8846 18.488C23.9588 18.3965 23.9995 18.2825 24 18.1647V16.5563C23.9992 16.4367 23.9571 16.3211 23.8809 16.2289C23.8046 16.1368 23.6988 16.0739 23.5815 16.0508C23.3414 15.9978 23.1191 15.8835 22.9362 15.7191C22.7533 15.5547 22.6161 15.3457 22.5379 15.1126C22.4597 14.8794 22.4431 14.63 22.4898 14.3886C22.5365 14.1472 22.645 13.9219 22.8045 13.7348C23.0068 13.502 23.2865 13.3503 23.592 13.3077C23.7073 13.2831 23.8106 13.2198 23.8849 13.1283C23.9591 13.0368 23.9998 12.9226 24 12.8048V11.235C23.9996 11.0987 23.9453 10.9681 23.8489 10.8717C23.7525 10.7753 23.6218 10.7209 23.4855 10.7205ZM5.775 10.2915L14.6453 1.42017C14.6686 1.39681 14.6963 1.37828 14.7268 1.36564C14.7573 1.353 14.79 1.34649 14.823 1.34649C14.856 1.34649 14.8887 1.353 14.9192 1.36564C14.9497 1.37828 14.9774 1.39681 15.0007 1.42017C15.0892 1.53267 15.3191 1.64742 15.2423 1.86454C15.1118 2.23129 15.0715 2.62403 15.1246 3.00964C15.1777 3.39526 15.3227 3.76246 15.5474 4.08029C15.7721 4.39813 16.07 4.65729 16.4158 4.83594C16.7617 5.01458 17.1454 5.10748 17.5346 5.10679C18.2674 5.10679 18.4058 4.82517 18.6079 5.02692C18.8494 5.31004 19.1156 5.41954 19.0324 5.65429C18.9021 6.02103 18.8617 6.4137 18.9148 6.79928C18.9678 7.18485 19.1127 7.55204 19.3372 7.86997C19.5617 8.18789 19.8593 8.44725 20.2049 8.62622C20.5505 8.80519 20.934 8.89854 21.3232 8.89842C22.0485 8.89842 22.1951 8.61604 22.3969 8.81704C22.4659 8.89579 22.8094 9.12604 22.5806 9.35517L21.8224 10.1145L21.45 10.4869C21.3759 10.561 21.2879 10.6198 21.1911 10.6599C21.0942 10.7 20.9904 10.7206 20.8856 10.7205H5.95088C5.9014 10.72 5.85316 10.7049 5.81221 10.6772C5.77126 10.6494 5.73941 10.6102 5.72064 10.5644C5.70187 10.5186 5.69702 10.4683 5.70669 10.4198C5.71635 10.3712 5.74012 10.3266 5.775 10.2915ZM22.971 12.2595C22.971 12.3039 22.9593 12.3474 22.9371 12.3858C22.9148 12.4241 22.8828 12.4559 22.8442 12.4778C22.5565 12.6127 22.2951 12.7977 22.0721 13.0242C21.8167 13.3062 21.6306 13.6439 21.5285 14.0104C21.4264 14.3769 21.4112 14.7622 21.484 15.1357C21.5568 15.5091 21.7156 15.8605 21.9479 16.1618C22.1802 16.4631 22.4795 16.7062 22.8221 16.8717C22.8664 16.8919 22.904 16.9242 22.9306 16.965C22.9571 17.0058 22.9715 17.0533 22.9721 17.1019V17.5677C22.9786 17.6244 22.9677 17.6817 22.9409 17.7321C22.9142 17.7825 22.8727 17.8237 22.8221 17.85C22.4795 18.0155 22.1802 18.2585 21.9479 18.5598C21.7156 18.8611 21.5568 19.2124 21.484 19.5858C21.4112 19.9593 21.4264 20.3445 21.5285 20.711C21.6306 21.0775 21.8167 21.4152 22.0721 21.6972C22.2952 21.9237 22.5567 22.1087 22.8446 22.2435C22.8832 22.2656 22.9152 22.2974 22.9374 22.3358C22.9597 22.3742 22.9714 22.4178 22.9714 22.4622C22.9556 22.5334 23.0573 22.9722 22.7201 22.9722H1.27988C0.933375 22.9722 1.04775 22.5473 1.029 22.4622C1.02901 22.4178 1.04073 22.3742 1.06299 22.3358C1.08525 22.2974 1.11724 22.2656 1.15575 22.2435C1.44365 22.1086 1.70523 21.9234 1.92825 21.6968C2.18348 21.4148 2.36948 21.0771 2.47148 20.7107C2.57349 20.3442 2.5887 19.9591 2.51591 19.5857C2.44312 19.2124 2.28433 18.8611 2.05214 18.5599C1.81994 18.2586 1.52074 18.0155 1.17825 17.85C1.13401 17.8298 1.09643 17.7974 1.06987 17.7567C1.04332 17.7159 1.02888 17.6684 1.02825 17.6198V17.1537C1.0217 17.097 1.03254 17.0397 1.05933 16.9893C1.08612 16.9389 1.1276 16.8979 1.17825 16.8717C1.52074 16.7061 1.81995 16.4631 2.05214 16.1617C2.28433 15.8604 2.44312 15.5091 2.51591 15.1358C2.5887 14.7624 2.57349 14.3772 2.47148 14.0107C2.36948 13.6443 2.18348 13.3066 1.92825 13.0245C1.70523 12.7979 1.44365 12.6128 1.15575 12.4778C1.11722 12.4559 1.0852 12.4241 1.06293 12.3858C1.04067 12.3474 1.02896 12.3039 1.029 12.2595C1.04475 12.1875 0.943125 11.7495 1.27988 11.7495H22.7197C23.0666 11.7495 22.9522 12.1744 22.971 12.2595Z" fill="#1C3C6C"/>
<path d="M5.82715 14.8132H18.1725C18.2412 14.8151 18.3096 14.8032 18.3736 14.7782C18.4377 14.7531 18.496 14.7156 18.5453 14.6676C18.5945 14.6197 18.6337 14.5623 18.6604 14.499C18.6871 14.4357 18.7009 14.3677 18.7009 14.2989C18.7009 14.2302 18.6871 14.1622 18.6604 14.0988C18.6337 14.0355 18.5945 13.9782 18.5453 13.9302C18.496 13.8823 18.4377 13.8447 18.3736 13.8197C18.3096 13.7947 18.2412 13.7828 18.1725 13.7846H5.82715C5.69315 13.7882 5.56585 13.844 5.47235 13.9401C5.37886 14.0361 5.32654 14.1649 5.32654 14.2989C5.32654 14.433 5.37886 14.5617 5.47235 14.6578C5.56585 14.7538 5.69315 14.8096 5.82715 14.8132Z" fill="#1C3C6C"/>
<path d="M18.1725 19.9092H5.82712C5.69067 19.9092 5.5598 19.9634 5.46332 20.0599C5.36683 20.1564 5.31262 20.2872 5.31262 20.4237C5.31262 20.5601 5.36683 20.691 5.46332 20.7875C5.5598 20.884 5.69067 20.9382 5.82712 20.9382H18.1725C18.309 20.9382 18.4398 20.884 18.5363 20.7875C18.6328 20.691 18.687 20.5601 18.687 20.4237C18.687 20.2872 18.6328 20.1564 18.5363 20.0599C18.4398 19.9634 18.309 19.9092 18.1725 19.9092Z" fill="#1C3C6C"/>
<path d="M5.82751 17.9882C5.95159 17.9882 6.07288 17.9514 6.17605 17.8824C6.27923 17.8135 6.35964 17.7155 6.40712 17.6009C6.45461 17.4862 6.46703 17.3601 6.44282 17.2384C6.41861 17.1167 6.35886 17.0049 6.27112 16.9172C6.18339 16.8294 6.0716 16.7697 5.9499 16.7455C5.8282 16.7212 5.70206 16.7337 5.58742 16.7812C5.47278 16.8286 5.3748 16.9091 5.30587 17.0122C5.23693 17.1154 5.20013 17.2367 5.20013 17.3608C5.20013 17.5272 5.26623 17.6867 5.38389 17.8044C5.50154 17.9221 5.66112 17.9882 5.82751 17.9882Z" fill="#1C3C6C"/>
<path d="M7.25775 17.3606C7.25768 17.4848 7.29442 17.6061 7.36333 17.7093C7.43224 17.8126 7.53021 17.893 7.64487 17.9406C7.75952 17.9881 7.88569 18.0006 8.00743 17.9764C8.12916 17.9522 8.24098 17.8924 8.32875 17.8047C8.41651 17.7169 8.47627 17.6051 8.50046 17.4833C8.52466 17.3616 8.5122 17.2354 8.46467 17.1208C8.41714 17.0061 8.33667 16.9081 8.23344 16.8392C8.13021 16.7703 8.00887 16.7336 7.88475 16.7336C7.71849 16.7337 7.55907 16.7998 7.4415 16.9174C7.32394 17.035 7.25785 17.1944 7.25775 17.3606Z" fill="#1C3C6C"/>
<path d="M9.31537 17.3606C9.31529 17.4848 9.35204 17.6061 9.42094 17.7093C9.48985 17.8126 9.58783 17.893 9.70249 17.9406C9.81714 17.9881 9.94331 18.0006 10.065 17.9764C10.1868 17.9522 10.2986 17.8924 10.3864 17.8047C10.4741 17.7169 10.5339 17.6051 10.5581 17.4833C10.5823 17.3616 10.5698 17.2354 10.5223 17.1208C10.4748 17.0061 10.3943 16.9081 10.2911 16.8392C10.1878 16.7703 10.0665 16.7336 9.94237 16.7336C9.77608 16.7336 9.6166 16.7997 9.49901 16.9173C9.38143 17.0349 9.31537 17.1944 9.31537 17.3606Z" fill="#1C3C6C"/>
<path d="M11.3726 17.3606C11.3725 17.4847 11.4093 17.6061 11.4782 17.7093C11.5471 17.8125 11.645 17.893 11.7597 17.9405C11.8743 17.9881 12.0004 18.0006 12.1222 17.9764C12.2439 17.9522 12.3557 17.8925 12.4435 17.8048C12.5313 17.7171 12.5911 17.6053 12.6153 17.4836C12.6395 17.3618 12.6271 17.2357 12.5797 17.121C12.5322 17.0064 12.4518 16.9084 12.3486 16.8394C12.2454 16.7704 12.1241 16.7336 12 16.7336C11.8337 16.7336 11.6742 16.7997 11.5565 16.9173C11.4389 17.0348 11.3727 17.1943 11.3726 17.3606Z" fill="#1C3C6C"/>
<path d="M13.4302 17.3606C13.4302 17.4847 13.4669 17.6061 13.5358 17.7093C13.6047 17.8125 13.7026 17.893 13.8173 17.9405C13.9319 17.9881 14.0581 18.0006 14.1798 17.9764C14.3015 17.9522 14.4133 17.8925 14.5011 17.8048C14.5889 17.7171 14.6487 17.6053 14.6729 17.4836C14.6972 17.3618 14.6847 17.2357 14.6373 17.121C14.5898 17.0064 14.5094 16.9084 14.4062 16.8394C14.303 16.7704 14.1817 16.7336 14.0576 16.7336C13.8913 16.7336 13.7318 16.7997 13.6141 16.9173C13.4965 17.0348 13.4303 17.1943 13.4302 17.3606Z" fill="#1C3C6C"/>
<path d="M15.4875 17.3606C15.4874 17.4847 15.5241 17.6061 15.593 17.7093C15.6619 17.8125 15.7599 17.893 15.8745 17.9405C15.9892 17.9881 16.1153 18.0006 16.237 17.9764C16.3588 17.9522 16.4706 17.8925 16.5584 17.8048C16.6461 17.7171 16.7059 17.6053 16.7302 17.4836C16.7544 17.3618 16.742 17.2357 16.6945 17.121C16.6471 17.0064 16.5666 16.9084 16.4635 16.8394C16.3603 16.7704 16.239 16.7336 16.1149 16.7336C15.9485 16.7336 15.789 16.7997 15.6714 16.9173C15.5537 17.0348 15.4876 17.1943 15.4875 17.3606Z" fill="#1C3C6C"/>
<path d="M18.1729 16.7336C18.0487 16.7336 17.9274 16.7703 17.8242 16.8392C17.7209 16.9081 17.6405 17.0061 17.5929 17.1208C17.5454 17.2354 17.5329 17.3616 17.5571 17.4833C17.5813 17.6051 17.6411 17.7169 17.7289 17.8047C17.8166 17.8924 17.9284 17.9522 18.0502 17.9764C18.1719 18.0006 18.2981 17.9881 18.4127 17.9406C18.5274 17.893 18.6254 17.8126 18.6943 17.7093C18.7632 17.6061 18.7999 17.4848 18.7998 17.3606C18.7998 17.1944 18.7338 17.0349 18.6162 16.9173C18.4986 16.7997 18.3391 16.7336 18.1729 16.7336Z" fill="#1C3C6C"/>
</svg>
