<svg width="24" height="24" viewBox="0 0 24 24" fill="none" xmlns="http://www.w3.org/2000/svg">
<g clip-path="url(#clip0_306_1198)">
<path d="M18.3289 11.7876H20.003C20.3815 11.7876 20.6894 11.4797 20.6894 11.1012V9.42715C20.6894 9.04869 20.3815 8.74076 20.003 8.74076H18.3289C17.9505 8.74076 17.6425 9.04869 17.6425 9.42715V11.1012C17.6425 11.4797 17.9505 11.7876 18.3289 11.7876ZM18.3457 9.44389H19.9863V11.0845H18.3457V9.44389ZM18.3289 16.2408H20.003C20.3815 16.2408 20.6894 15.9328 20.6894 15.5544V13.8803C20.6894 13.5018 20.3815 13.1939 20.003 13.1939H18.3289C17.9505 13.1939 17.6425 13.5018 17.6425 13.8803V15.5544C17.6425 15.9328 17.9505 16.2408 18.3289 16.2408ZM18.3457 13.897H19.9863V15.5376H18.3457V13.897ZM13.5516 11.7876H15.2257C15.6042 11.7876 15.9121 11.4797 15.9121 11.1012V9.42715C15.9121 9.04869 15.6042 8.74076 15.2257 8.74076H13.5516C13.1732 8.74076 12.8652 9.04869 12.8652 9.42715V11.1012C12.8652 11.4797 13.1732 11.7876 13.5516 11.7876ZM13.5684 9.44389H15.209V11.0845H13.5684V9.44389ZM5.6711 17.4382H3.99701C3.61854 17.4382 3.31062 17.7462 3.31062 18.1246V19.7987C3.31062 20.1772 3.61854 20.4851 3.99701 20.4851H5.6711C6.04957 20.4851 6.35749 20.1772 6.35749 19.7987V18.1246C6.35749 17.7462 6.04957 17.4382 5.6711 17.4382ZM5.65437 19.782H4.01375V18.1414H5.65437V19.782ZM5.6711 8.74076H3.99701C3.61854 8.74076 3.31062 9.04869 3.31062 9.42715V11.1012C3.31062 11.4797 3.61854 11.7876 3.99701 11.7876H5.6711C6.04957 11.7876 6.35749 11.4797 6.35749 11.1012V9.42715C6.35749 9.04864 6.04957 8.74076 5.6711 8.74076ZM5.65437 11.0845H4.01375V9.44389H5.65437V11.0845ZM13.5516 16.1364H15.2257C15.6042 16.1364 15.9121 15.8285 15.9121 15.45V13.7759C15.9121 13.3974 15.6042 13.0895 15.2257 13.0895H13.5516C13.1732 13.0895 12.8652 13.3974 12.8652 13.7759V15.45C12.8652 15.8285 13.1732 16.1364 13.5516 16.1364ZM13.5684 13.7926H15.209V15.4332H13.5684V13.7926ZM21.0386 1.60733H19.5355V1.06981C19.5355 0.48031 19.0559 0.000732422 18.4664 0.000732422H18.305C17.7155 0.000732422 17.236 0.48031 17.236 1.06981V1.60733H6.76409V1.06981C6.76409 0.48031 6.28451 0.000732422 5.69501 0.000732422H5.53357C4.94407 0.000732422 4.4645 0.48031 4.4645 1.06981V1.60733H2.96145C1.9909 1.60733 1.20129 2.39694 1.20129 3.36748V22.2429C1.20129 23.2122 1.98982 24.0007 2.95911 24.0007H21.041C22.0103 24.0007 22.7988 23.2122 22.7988 22.2429V3.36748C22.7988 2.39694 22.0092 1.60733 21.0386 1.60733ZM17.9391 1.06981C17.9391 0.868014 18.1032 0.703857 18.305 0.703857H18.4665C18.6683 0.703857 18.8324 0.868014 18.8324 1.06981V1.60733H17.9391V1.06981ZM5.16767 1.06981C5.16767 0.868014 5.33182 0.703857 5.53362 0.703857H5.69506C5.89685 0.703857 6.06101 0.868014 6.06101 1.06981V1.60733H5.16771V1.06981H5.16767ZM22.0957 22.2429C22.0957 22.8245 21.6226 23.2976 21.041 23.2976H2.95906C2.37748 23.2976 1.90437 22.8245 1.90437 22.2429V22.2407C2.19893 22.4627 2.56507 22.5945 2.96145 22.5945H17.2153C17.6855 22.5945 18.1275 22.4114 18.46 22.0789L22.0957 18.4432V22.2429ZM18.1012 21.4433C18.1288 21.3295 18.1438 21.2109 18.1438 21.0888V18.742C18.1438 18.2995 18.5038 17.9395 18.9464 17.9395H21.2931C21.4152 17.9395 21.5338 17.9245 21.6476 17.8969L18.1012 21.4433ZM22.0957 6.63139H7.11565C6.92149 6.63139 6.76409 6.78879 6.76409 6.98295C6.76409 7.17711 6.92149 7.33451 7.11565 7.33451H22.0957V16.4338C22.0957 16.8763 21.7356 17.2364 21.2931 17.2364H18.9464C18.1161 17.2364 17.4407 17.9119 17.4407 18.7421V21.0888C17.4407 21.5314 17.0806 21.8914 16.6381 21.8914H2.96145C2.37861 21.8914 1.90442 21.4172 1.90442 20.8343V7.33451H5.7094C5.90356 7.33451 6.06096 7.17711 6.06096 6.98295C6.06096 6.78879 5.90356 6.63139 5.7094 6.63139H1.90437V3.36748C1.90437 2.78464 2.37856 2.31045 2.9614 2.31045H4.4645V3.34414C4.4645 3.93364 4.94407 4.41322 5.53357 4.41322C5.72773 4.41322 5.88514 4.25581 5.88514 4.06165C5.88514 3.8675 5.72773 3.71009 5.53357 3.71009C5.33178 3.71009 5.16762 3.54594 5.16762 3.34414V2.31045H17.236V3.34414C17.236 3.93364 17.7155 4.41322 18.305 4.41322C18.4992 4.41322 18.6566 4.25581 18.6566 4.06165C18.6566 3.8675 18.4992 3.71009 18.305 3.71009C18.1032 3.71009 17.9391 3.54594 17.9391 3.34414V2.31045H21.0386C21.6215 2.31045 22.0957 2.78464 22.0957 3.36748V6.63139ZM5.6711 13.0895H3.99701C3.61854 13.0895 3.31062 13.3974 3.31062 13.7759V15.45C3.31062 15.8285 3.61854 16.1364 3.99701 16.1364H5.6711C6.04957 16.1364 6.35749 15.8285 6.35749 15.45V13.7759C6.35749 13.3974 6.04957 13.0895 5.6711 13.0895ZM5.65437 15.4332H4.01375V13.7926H5.65437V15.4332ZM8.77432 11.7876H10.4484C10.8269 11.7876 11.1348 11.4797 11.1348 11.1012V9.42715C11.1348 9.04869 10.8269 8.74076 10.4484 8.74076H8.77432C8.39585 8.74076 8.08793 9.04869 8.08793 9.42715V11.1012C8.08793 11.4797 8.39585 11.7876 8.77432 11.7876ZM8.79106 9.44389H10.4317V11.0845H8.79106V9.44389ZM13.5679 19.782C13.5592 19.5956 13.4053 19.4472 13.2168 19.4472C13.0226 19.4472 12.8652 19.6046 12.8652 19.7987C12.8652 20.1772 13.1731 20.4851 13.5516 20.4851H15.2257C15.6041 20.4851 15.9121 20.1772 15.9121 19.7987V18.1246C15.9121 17.7462 15.6041 17.4382 15.2257 17.4382H13.5516C13.1731 17.4382 12.8652 17.7462 12.8652 18.1246V18.6074C12.8652 18.8016 13.0226 18.959 13.2168 18.959C13.4109 18.959 13.5683 18.8016 13.5683 18.6074V18.1414H15.2089V19.782H13.5679ZM8.77432 16.1364H10.4484C10.8269 16.1364 11.1348 15.8285 11.1348 15.45V13.7759C11.1348 13.3974 10.8269 13.0895 10.4484 13.0895H8.77432C8.39585 13.0895 8.08793 13.3974 8.08793 13.7759V15.45C8.08793 15.8285 8.39585 16.1364 8.77432 16.1364ZM8.79106 13.7926H10.4317V15.4332H8.79106V13.7926ZM8.77432 20.4851H10.4484C10.8269 20.4851 11.1348 20.1772 11.1348 19.7987V18.1246C11.1348 17.7462 10.8269 17.4382 10.4484 17.4382H8.77432C8.39585 17.4382 8.08793 17.7462 8.08793 18.1246V19.7987C8.08793 20.1772 8.39585 20.4851 8.77432 20.4851ZM8.79106 18.1414H10.4317V19.782H8.79106V18.1414Z" fill="#1C3C6C"/>
</g>
<defs>
<clipPath id="clip0_306_1198">
<rect width="24" height="24" fill="white" transform="translate(0 0.000732422)"/>
</clipPath>
</defs>
</svg>
