<svg width="24" height="24" viewBox="0 0 24 24" fill="none" xmlns="http://www.w3.org/2000/svg">
<path d="M12 4.875C11.1842 4.875 10.3866 5.11693 9.70827 5.57019C9.02992 6.02345 8.50121 6.66768 8.189 7.42143C7.87679 8.17517 7.7951 9.00457 7.95426 9.80474C8.11343 10.6049 8.50629 11.3399 9.08319 11.9168C9.66008 12.4937 10.3951 12.8866 11.1953 13.0457C11.9954 13.2049 12.8248 13.1232 13.5786 12.811C14.3323 12.4988 14.9766 11.9701 15.4298 11.2917C15.8831 10.6134 16.125 9.81584 16.125 8.99999C16.1238 7.90636 15.6888 6.85787 14.9154 6.08455C14.1421 5.31124 13.0936 4.87624 12 4.875ZM12 12.375C11.3325 12.375 10.68 12.177 10.125 11.8062C9.56994 11.4353 9.13735 10.9082 8.88191 10.2915C8.62646 9.67485 8.55963 8.99625 8.68985 8.34156C8.82008 7.68688 9.14151 7.08551 9.61352 6.61351C10.0855 6.14151 10.6869 5.82007 11.3416 5.68985C11.9963 5.55962 12.6749 5.62646 13.2916 5.8819C13.9083 6.13735 14.4354 6.56993 14.8062 7.12495C15.1771 7.67996 15.375 8.33248 15.375 8.99999C15.374 9.89479 15.0181 10.7527 14.3854 11.3854C13.7527 12.0181 12.8948 12.374 12 12.375Z" fill="#1C3C6C"/>
<path d="M12 0C9.61389 0.0027294 7.32629 0.951817 5.63905 2.63905C3.95182 4.32629 3.00273 6.61389 3 9C3 15.4609 11.384 23.5547 11.7407 23.896C11.8105 23.9628 11.9034 24 12 24C12.0966 24 12.1895 23.9628 12.2593 23.896C12.616 23.5547 21 15.4609 21 9C20.9973 6.61389 20.0482 4.32629 18.3609 2.63905C16.6737 0.951817 14.3861 0.0027294 12 0V0ZM12 23.0978C10.5729 21.666 3.75 14.529 3.75 9C3.75 6.81196 4.61919 4.71354 6.16637 3.16637C7.71354 1.61919 9.81196 0.75 12 0.75C14.188 0.75 16.2865 1.61919 17.8336 3.16637C19.3808 4.71354 20.25 6.81196 20.25 9C20.25 14.5263 13.4271 21.6654 12 23.0978Z" fill="#1C3C6C"/>
</svg>
