<svg width="24" height="24" viewBox="0 0 24 24" fill="none" xmlns="http://www.w3.org/2000/svg">
<g clip-path="url(#clip0_306_1214)">
<path d="M20.4853 3.51469C18.2188 1.24823 15.2053 0 12 0C8.79469 0 5.78119 1.24823 3.51469 3.51469C1.24823 5.78119 0 8.79469 0 12C0 15.2053 1.24823 18.2188 3.51469 20.4853C5.78119 22.7518 8.79469 24 12 24C15.2053 24 18.2188 22.7518 20.4853 20.4853C22.7518 18.2188 24 15.2053 24 12C24 8.79469 22.7518 5.78119 20.4853 3.51469ZM19.9881 19.9881C17.8544 22.1218 15.0175 23.2969 12 23.2969C8.98247 23.2969 6.14559 22.1218 4.01189 19.9881C1.87819 17.8544 0.703125 15.0175 0.703125 12C0.703125 8.98247 1.87819 6.14559 4.01189 4.01189C6.14559 1.87819 8.98247 0.703125 12 0.703125C15.0175 0.703125 17.8544 1.87819 19.9881 4.01189C22.1218 6.14559 23.2969 8.98247 23.2969 12C23.2969 15.0175 22.1218 17.8544 19.9881 19.9881Z" fill="#1C3C6C"/>
<path d="M15.7555 20.8903C14.6736 21.348 13.53 21.5996 12.3516 21.6415V20.4092C12.3516 20.215 12.1941 20.0576 12 20.0576C11.8058 20.0576 11.6484 20.215 11.6484 20.4092V21.6413C9.25297 21.5551 7.0776 20.5915 5.43425 19.0629L6.30238 18.1947C6.43967 18.0574 6.43967 17.8348 6.30238 17.6975C6.16508 17.5602 5.94247 17.5602 5.80517 17.6975L4.93705 18.5657C3.40836 16.9224 2.44489 14.747 2.35864 12.3515H3.59084C3.785 12.3515 3.94241 12.1941 3.94241 12C3.94241 11.8058 3.785 11.6484 3.59084 11.6484H2.3585C2.44297 9.30793 3.368 7.11156 4.93311 5.43024L5.80522 6.30235C5.87385 6.37103 5.96385 6.40534 6.0538 6.40534C6.14375 6.40534 6.23375 6.37103 6.30238 6.3024C6.43967 6.1651 6.43967 5.94249 6.30238 5.8052L5.43055 4.93337C5.81769 4.57384 6.23652 4.24262 6.6861 3.94543C6.84805 3.83837 6.89253 3.62026 6.78547 3.45826C6.67836 3.29631 6.4603 3.25177 6.29835 3.35888C3.3867 5.28376 1.64844 8.51411 1.64844 12C1.64844 14.765 2.7252 17.3645 4.68036 19.3196C6.63552 21.2748 9.23502 22.3516 12 22.3516C13.3973 22.3516 14.753 22.0778 16.0294 21.538C16.2082 21.4623 16.2919 21.256 16.2163 21.0772C16.1406 20.8983 15.9343 20.8147 15.7555 20.8903Z" fill="#1C3C6C"/>
<path d="M19.3196 4.68031C17.3645 2.72516 14.765 1.64844 12 1.64844C10.4552 1.64844 8.96901 1.98059 7.58268 2.63563C7.40714 2.71859 7.33204 2.92813 7.41501 3.10367C7.49794 3.27927 7.70751 3.35427 7.88306 3.27134C9.06923 2.71086 10.3344 2.40486 11.6484 2.3585V3.5908C11.6484 3.78495 11.8058 3.94236 12 3.94236C12.1941 3.94236 12.3515 3.78495 12.3515 3.5908V2.35864C14.747 2.44489 16.9223 3.40841 18.5657 4.93709L17.6976 5.80522C17.5603 5.94252 17.5603 6.16513 17.6976 6.30242C17.7662 6.37105 17.8562 6.40536 17.9461 6.40536C18.0361 6.40536 18.1261 6.37105 18.1947 6.30238L19.0628 5.43425C20.5916 7.0776 21.555 9.25297 21.6413 11.6484H20.4091C20.2149 11.6484 20.0575 11.8058 20.0575 12C20.0575 12.1941 20.2149 12.3516 20.4091 12.3516H21.6415C21.5845 13.9175 21.1483 15.4493 20.3703 16.8023C20.0038 17.4397 19.5646 18.032 19.0656 18.5684L18.1947 17.6976C18.0574 17.5603 17.8348 17.5603 17.6975 17.6976C17.5602 17.8349 17.5602 18.0575 17.6975 18.1948L18.5682 19.0654C18.0886 19.5115 17.5646 19.9104 17.0027 20.2518C16.8368 20.3526 16.784 20.5689 16.8848 20.7348C16.951 20.8437 17.0669 20.9039 17.1856 20.9039C17.2478 20.9039 17.3108 20.8874 17.3678 20.8527C18.8605 19.9457 20.1095 18.6663 20.9798 17.1528C21.8772 15.5922 22.3515 13.8104 22.3515 12C22.3515 9.23497 21.2748 6.63547 19.3196 4.68031Z" fill="#1C3C6C"/>
<path d="M16.0103 7.35688L12.4544 10.9129C12.3167 10.8469 12.1626 10.8098 12 10.8098C11.8373 10.8098 11.6832 10.8468 11.5455 10.9129L9.621 8.98841C9.48371 8.85112 9.2611 8.85112 9.12385 8.98841C8.98655 9.12571 8.98655 9.34832 9.12385 9.48557L11.0483 11.41C10.9823 11.5477 10.9453 11.7018 10.9453 11.8645C10.9453 12.446 11.4184 12.9192 12 12.9192C12.5815 12.9192 13.0546 12.446 13.0546 11.8645C13.0546 11.7019 13.0176 11.5477 12.9516 11.41L16.5075 7.85404C16.6448 7.71674 16.6448 7.49413 16.5075 7.35684C16.3703 7.21959 16.1476 7.21959 16.0103 7.35688ZM12 12.216C11.8061 12.216 11.6484 12.0583 11.6484 11.8645C11.6484 11.6706 11.8061 11.5129 12 11.5129C12.1938 11.5129 12.3515 11.6706 12.3515 11.8645C12.3515 12.0583 12.1938 12.216 12 12.216Z" fill="#1C3C6C"/>
<path d="M13.2422 16.0547C13.4363 16.0547 13.5938 15.8973 13.5938 15.7031C13.5938 15.509 13.4363 15.3516 13.2422 15.3516H10.7578C10.5637 15.3516 10.4062 15.509 10.4062 15.7031C10.4062 15.8973 10.5637 16.0547 10.7578 16.0547H13.2422Z" fill="#1C3C6C"/>
</g>
<defs>
<clipPath id="clip0_306_1214">
<rect width="24" height="24" fill="white"/>
</clipPath>
</defs>
</svg>
