<svg width="18" height="24" viewBox="0 0 18 24" fill="none" xmlns="http://www.w3.org/2000/svg">
<g clip-path="url(#clip0_229_1359)">
<path d="M12.1487 24H1.01753C0.743076 24 0.485427 23.8809 0.298724 23.6855C0.112022 23.4902 0 23.2305 0 22.9336V1.06445C0 0.769531 0.113889 0.507812 0.298724 0.3125C0.48356 0.117188 0.735608 0 1.01753 0C6.20413 0 11.8033 0 16.9638 0C17.2476 0 17.4959 0.119141 17.6826 0.3125C17.8693 0.505859 17.9832 0.767578 17.9832 1.06445V17.7969C17.9907 17.8379 18 17.873 18 17.916C18 18.0605 17.9365 18.1875 17.845 18.2793L12.5838 23.8457C12.496 23.9375 12.2906 24.0039 12.1487 24ZM2.38606 2.68164H3.00778V5.4043H2.38606V2.68164ZM3.53241 2.68164H4.11119L4.8636 4.18555V2.68164H5.44985V5.4043H4.8636L4.11493 3.9082V5.4043H3.53241V2.68164ZM5.73924 2.68164H6.3871L6.83892 4.64258L7.28514 2.68164H7.91432L7.16938 5.4043H6.49725L5.73924 2.68164ZM8.01514 4.04492C8.01514 3.59961 8.10663 3.25391 8.2896 3.00781C8.47257 2.75977 8.72648 2.63672 9.05321 2.63672C9.38741 2.63672 9.64506 2.75781 9.82616 3.00195C10.0073 3.24414 10.0969 3.58594 10.0969 4.02344C10.0969 4.3418 10.0577 4.60156 9.97926 4.80469C9.90084 5.00781 9.78508 5.16602 9.63759 5.2793C9.48823 5.39258 9.30153 5.44922 9.07935 5.44922C8.85344 5.44922 8.66487 5.40039 8.51737 5.30273C8.36988 5.20508 8.24852 5.04883 8.15704 4.83789C8.06182 4.62891 8.01514 4.36328 8.01514 4.04492ZM8.635 4.04688C8.635 4.32227 8.67234 4.51953 8.74889 4.63867C8.82357 4.75781 8.92812 4.81836 9.05694 4.81836C9.1895 4.81836 9.29406 4.75977 9.36687 4.64258C9.43968 4.52539 9.47703 4.31445 9.47703 4.00977C9.47703 3.75391 9.43782 3.56641 9.36314 3.44922C9.28659 3.33008 9.1839 3.27148 9.05321 3.27148C8.92812 3.27148 8.8273 3.33203 8.75075 3.45117C8.6742 3.57031 8.635 3.76953 8.635 4.04688ZM10.5282 2.68164H11.1499V5.4043H10.5282V2.68164ZM13.0057 4.29102L13.549 4.51367C13.5117 4.7207 13.4538 4.89258 13.3754 5.03125C13.297 5.16992 13.1999 5.27539 13.0823 5.3457C12.9665 5.41602 12.8171 5.45117 12.6379 5.45117C12.4195 5.45117 12.2402 5.4082 12.1021 5.32227C11.9639 5.23633 11.8444 5.08398 11.7436 4.86914C11.6428 4.6543 11.5924 4.375 11.5924 4.03906C11.5924 3.58984 11.6801 3.24219 11.8575 3C12.0349 2.75781 12.285 2.63672 12.608 2.63672C12.8601 2.63672 13.0598 2.70508 13.2055 2.84375C13.3492 2.98242 13.4575 3.19531 13.5285 3.48242L12.9814 3.64648C12.9628 3.56445 12.9422 3.50391 12.9217 3.4668C12.8862 3.40234 12.8433 3.35352 12.7947 3.31836C12.7443 3.2832 12.6883 3.26562 12.6267 3.26562C12.4848 3.26562 12.3784 3.3418 12.3037 3.49414C12.2477 3.60742 12.2178 3.78711 12.2178 4.0293C12.2178 4.33008 12.2514 4.53711 12.3186 4.64844C12.3859 4.75977 12.4811 4.81641 12.6043 4.81641C12.7238 4.81641 12.8134 4.77148 12.8731 4.68164C12.9348 4.59375 12.9777 4.46289 13.0057 4.29102ZM13.9224 2.68164H15.5822V3.26367H14.5441V3.69727H15.5057V4.25195H14.5441V4.78906H15.6121V5.40625H13.9224V2.68164ZM5.14739 17.8535C5.55814 17.8535 5.92968 18.0273 6.20039 18.3105C6.46925 18.5918 6.63728 18.9824 6.63728 19.4121C6.63728 19.8418 6.47111 20.2305 6.20039 20.5137C5.93154 20.7949 5.55814 20.9688 5.14739 20.9688C4.73665 20.9688 4.36511 20.7949 4.09439 20.5137C3.82554 20.2324 3.6575 19.8418 3.6575 19.4121C3.6575 18.9824 3.82367 18.5918 4.09439 18.3105C4.36511 18.0273 4.73665 17.8535 5.14739 17.8535ZM5.81765 18.7109C5.64589 18.5312 5.40877 18.4219 5.14739 18.4219C4.88601 18.4219 4.6489 18.5332 4.47713 18.7109C4.30536 18.8887 4.20081 19.1387 4.20081 19.4121C4.20081 19.6855 4.30723 19.9336 4.47713 20.1133C4.64703 20.293 4.88601 20.4023 5.14739 20.4023C5.40877 20.4023 5.64589 20.291 5.81765 20.1133C5.98942 19.9355 6.09397 19.6855 6.09397 19.4121C6.09584 19.1367 5.98942 18.8887 5.81765 18.7109ZM5.14739 16.5645C5.89794 16.5645 6.57753 16.8828 7.07043 17.3984C7.56332 17.9141 7.86765 18.625 7.86765 19.4102C7.86765 20.1953 7.56332 20.9062 7.07043 21.4199C6.57753 21.9355 5.89794 22.2539 5.14739 22.2539C4.39685 22.2539 3.71538 21.9355 3.22435 21.4199C2.73146 20.9043 2.42713 20.1934 2.42713 19.4082C2.42713 18.623 2.73146 17.9102 3.22435 17.3965L3.24116 17.3828C3.73219 16.877 4.40618 16.5645 5.14739 16.5645ZM6.68956 17.7988C6.29561 17.3867 5.75044 17.1328 5.14926 17.1328C4.55368 17.1328 4.01411 17.3828 3.62016 17.7871L3.60709 17.8008C3.21315 18.2129 2.96857 18.7832 2.96857 19.4121C2.96857 20.041 3.21315 20.6113 3.60709 21.0234C4.00104 21.4355 4.54621 21.6914 5.14739 21.6914C5.74857 21.6914 6.29375 21.4355 6.68769 21.0234C7.08163 20.6113 7.32621 20.041 7.32621 19.4121C7.32621 18.7812 7.0835 18.2109 6.68956 17.7988ZM4.39125 8.73242C4.21014 8.73242 4.06452 8.58008 4.06452 8.39062C4.06452 8.20117 4.21014 8.04883 4.39125 8.04883H10.9482C11.1293 8.04883 11.275 8.20117 11.275 8.39062C11.275 8.58008 11.1293 8.73242 10.9482 8.73242H4.39125ZM4.39125 13.8359C4.21014 13.8359 4.06452 13.6836 4.06452 13.4941C4.06452 13.3047 4.21014 13.1523 4.39125 13.1523H13.4314C13.6125 13.1523 13.7581 13.3047 13.7581 13.4941C13.7581 13.6836 13.6125 13.8359 13.4314 13.8359H4.39125ZM4.39125 11.7461C4.21014 11.7461 4.06452 11.5938 4.06452 11.4043C4.06452 11.2148 4.21014 11.0625 4.39125 11.0625H10.9482C11.1293 11.0625 11.275 11.2148 11.275 11.4043C11.275 11.5938 11.1293 11.7461 10.9482 11.7461H4.39125ZM14.8093 10.0996H3.19075V14.7734H14.8093V10.0996ZM3.19075 9.41602H14.8093V7.33984H3.19075V9.41602ZM2.86402 6.65625H15.136C15.3171 6.65625 15.4627 6.80859 15.4627 6.99805V9.75781V15.1172C15.4627 15.3066 15.3171 15.459 15.136 15.459H2.86402C2.68292 15.459 2.53729 15.3047 2.53729 15.1172V9.75781V6.99805C2.53729 6.81055 2.68292 6.65625 2.86402 6.65625ZM11.7623 23.043V18.877C11.7623 18.4785 11.9172 18.1152 12.1674 17.8535C12.4176 17.5918 12.7649 17.4297 13.1457 17.4297H17.0553V1.0625C17.0553 1.03711 17.0478 1.00391 17.0217 0.986328C17.0049 0.96875 16.9806 0.951172 16.9489 0.951172C12.8433 0.951172 5.0055 0.951172 1.01193 0.951172C0.987657 0.951172 0.95405 0.958984 0.939114 0.986328C0.918577 1.00391 0.901774 1.03711 0.901774 1.0625V22.9336C0.901774 22.9688 0.909242 22.9922 0.93538 23.0098C0.952183 23.0273 0.976455 23.0449 1.00819 23.0449H11.7511L11.7623 23.043ZM12.6752 18.877V22.3672L16.4317 18.3867H13.1439C13.015 18.3867 12.9012 18.4473 12.8134 18.5312C12.7313 18.6152 12.6752 18.7422 12.6752 18.877Z" fill="#1EB7CF"/>
</g>
<defs>
<clipPath id="clip0_229_1359">
<rect width="18" height="24" fill="white"/>
</clipPath>
</defs>
</svg>
