<svg width="18" height="24" viewBox="0 0 18 24" fill="none" xmlns="http://www.w3.org/2000/svg">
<g clip-path="url(#clip0_235_1918)">
<path d="M15.9767 12.6168H8.0903C7.7418 12.6168 7.45933 12.3406 7.45933 12.0002C7.45933 11.6596 7.7418 11.3834 8.0903 11.3834H15.9763L13.4112 8.54162C13.181 8.28752 13.2055 7.89924 13.4655 7.67463C13.7256 7.44982 14.1231 7.47345 14.3531 7.72756L17.8423 11.5932C18.0565 11.8297 18.0501 12.1828 17.8383 12.4115L14.3529 16.2729C14.1227 16.5272 13.7254 16.5508 13.4653 16.3258C13.2055 16.101 13.181 15.7127 13.411 15.4586L15.9767 12.6168ZM8.56014 22.7879C8.90117 22.8678 9.11075 23.2 9.02817 23.5299C8.94559 23.8598 8.60234 24.0627 8.26111 23.9826C7.49366 23.8026 6.73024 23.6563 6.02961 23.5221C2.10511 22.7701 0 22.367 0 16.967V6.67736C0 1.55471 2.23715 1.15021 5.94239 0.480486C6.66361 0.350213 7.44621 0.208807 8.26111 0.0174004C8.60214 -0.0624824 8.94559 0.140252 9.02817 0.47033C9.11055 0.800213 8.90117 1.13244 8.56014 1.21232C7.69375 1.41564 6.90428 1.55822 6.1766 1.68986C3.1203 2.24221 1.27506 2.5758 1.27506 6.67736V16.967C1.27506 21.3551 3.02016 21.6895 6.27352 22.3127C6.95638 22.4436 7.70041 22.5863 8.56014 22.7879Z" fill="#1EB7CF"/>
</g>
<defs>
<clipPath id="clip0_235_1918">
<rect width="18" height="24" fill="white"/>
</clipPath>
</defs>
</svg>
