<svg width="22" height="24" viewBox="0 0 22 24" fill="none" xmlns="http://www.w3.org/2000/svg">
<path d="M19.9914 20.7136H2.09898C1.67747 20.7136 1.26664 20.5809 0.9247 20.3345C0.582763 20.088 0.327054 19.7401 0.193803 19.3402C0.060552 18.9403 0.0565145 18.5087 0.182263 18.1063C0.308011 17.704 0.557168 17.3515 0.894435 17.0986L1.79653 16.422C2.13602 16.1683 2.3638 15.7928 2.43189 15.3745L3.56369 8.50386C3.84003 6.71735 4.74653 5.0887 6.11926 3.91244C7.492 2.73619 9.24033 2.08998 11.0481 2.0907C12.8558 2.09141 14.6037 2.739 15.9755 3.91634C17.3473 5.09368 18.2525 6.72305 18.5274 8.50977L19.6585 15.3745C19.7265 15.7928 19.9543 16.1683 20.2938 16.422L21.1962 17.0986C21.5335 17.3515 21.7827 17.7041 21.9085 18.1064C22.0342 18.5088 22.0302 18.9406 21.8969 19.3405C21.7635 19.7404 21.5077 20.0883 21.1657 20.3347C20.8237 20.5812 20.4128 20.7137 19.9912 20.7136H19.9914ZM11.046 3.18654C9.49735 3.17902 7.99787 3.72985 6.82236 4.73806C5.64684 5.74628 4.87403 7.14435 4.64555 8.67606L3.51292 15.5525C3.39929 16.2495 3.01964 16.8753 2.4539 17.2981L1.55154 17.975C1.3982 18.0899 1.28493 18.2502 1.22777 18.4331C1.1706 18.616 1.17245 18.8122 1.23305 18.994C1.29364 19.1758 1.40991 19.3339 1.56538 19.4459C1.72085 19.5579 1.90763 19.6182 2.09926 19.6181H19.9916C20.1832 19.6182 20.3699 19.5579 20.5253 19.4459C20.6807 19.3339 20.797 19.1758 20.8576 18.9941C20.9182 18.8124 20.92 18.6162 20.8629 18.4333C20.8058 18.2504 20.6926 18.0902 20.5393 17.9753L19.6367 17.2981C19.071 16.8753 18.6913 16.2495 18.5777 15.5525L17.4456 8.68192C17.2182 7.14937 16.446 5.75013 15.2706 4.74078C14.0952 3.73143 12.5953 3.17962 11.046 3.18654Z" fill="black"/>
<path d="M12.6883 3.38377C12.543 3.38377 12.4037 3.32606 12.301 3.22334C12.1983 3.12063 12.1406 2.98131 12.1406 2.83605V2.09115C12.1406 1.80062 12.0252 1.52199 11.8197 1.31656C11.6143 1.11112 11.3357 0.995708 11.0451 0.995708C10.7546 0.995708 10.476 1.11112 10.2705 1.31656C10.0651 1.52199 9.94969 1.80062 9.94969 2.09115V2.83605C9.94969 2.98131 9.89198 3.12063 9.78927 3.22334C9.68655 3.32606 9.54723 3.38377 9.40197 3.38377C9.2567 3.38377 9.11739 3.32606 9.01467 3.22334C8.91195 3.12063 8.85425 2.98131 8.85425 2.83605V2.09115C8.85425 1.51009 9.08507 0.952832 9.49594 0.541962C9.90681 0.131093 10.4641 -0.0997314 11.0451 -0.0997314C11.6262 -0.0997314 12.1835 0.131093 12.5943 0.541962C13.0052 0.952832 13.236 1.51009 13.236 2.09115V2.83605C13.236 2.98131 13.1783 3.12063 13.0756 3.22334C12.9729 3.32606 12.8336 3.38377 12.6883 3.38377Z" fill="black"/>
<path d="M11.0452 23.9999C10.0287 23.9988 9.05417 23.5945 8.33539 22.8757C7.61662 22.1569 7.21231 21.1824 7.21118 20.1659C7.21118 20.0206 7.26889 19.8813 7.3716 19.7786C7.47432 19.6759 7.61364 19.6182 7.7589 19.6182C7.90416 19.6182 8.04348 19.6759 8.1462 19.7786C8.24891 19.8813 8.30662 20.0206 8.30662 20.1659C8.30662 20.8922 8.59515 21.5888 9.10874 22.1024C9.62232 22.6159 10.3189 22.9045 11.0452 22.9045C11.7715 22.9045 12.4681 22.6159 12.9817 22.1024C13.4953 21.5888 13.7838 20.8922 13.7838 20.1659C13.7838 20.0206 13.8415 19.8813 13.9442 19.7786C14.0469 19.6759 14.1863 19.6182 14.3315 19.6182C14.4768 19.6182 14.6161 19.6759 14.7188 19.7786C14.8215 19.8813 14.8792 20.0206 14.8792 20.1659C14.8781 21.1824 14.4738 22.1569 13.755 22.8757C13.0363 23.5945 12.0617 23.9988 11.0452 23.9999Z" fill="black"/>
</svg>
