<svg width="20" height="12" viewBox="0 0 20 12" fill="none" xmlns="http://www.w3.org/2000/svg">
<path fill-rule="evenodd" clip-rule="evenodd" d="M9.99829 2.43268C10.763 2.42972 11.5049 2.71355 12.0978 3.2358C12.6906 3.75805 13.0976 4.48641 13.2495 5.29678C13.4013 6.10715 13.2887 6.94939 12.9306 7.67998C12.5725 8.41058 11.9913 8.98433 11.2859 9.30347C10.5804 9.62262 9.79451 9.66742 9.06197 9.43023C8.32943 9.19304 7.69561 8.68855 7.26851 8.00271C6.8414 7.31686 6.64744 6.49211 6.71967 5.66897C6.7919 4.84583 7.12585 4.07523 7.66462 3.48848C7.97006 3.15488 8.33348 2.88987 8.73398 2.70867C9.13447 2.52748 9.56415 2.43368 9.99829 2.43268ZM0.170524 5.5121C0.688134 4.83213 1.24934 4.19238 1.84998 3.59758C4.18853 1.29593 6.84767 0.0659223 9.60121 0.00257422C12.3547 -0.0607739 15.149 1.0443 17.7951 3.40226C18.5209 4.0528 19.2028 4.75846 19.8358 5.51386C19.9342 5.63363 19.9918 5.78608 19.9992 5.94604C20.0066 6.10601 19.9633 6.26392 19.8765 6.39369C19.1723 7.47905 18.3297 8.45122 17.3736 9.28131C15.3765 11.0264 12.8898 11.9851 10.3221 12C7.73593 11.9927 5.21689 11.109 3.11934 9.47311C1.99724 8.61131 0.993983 7.5816 0.139604 6.41481C0.0441369 6.28518 -0.00523255 6.12286 0.00043963 5.95726C0.00611181 5.79166 0.0664505 5.63374 0.170524 5.5121ZM2.71412 4.63226C2.28001 5.05878 1.86767 5.51051 1.47894 5.98545C2.17983 6.87216 2.97891 7.66232 3.85817 8.33813C5.73865 9.80724 7.99732 10.6029 10.3173 10.6134C12.5937 10.5982 14.7979 9.74692 16.568 8.19911C17.2978 7.56601 17.9536 6.8392 18.5209 6.03472C18.0343 5.48269 17.5181 4.9621 16.9749 4.47565C14.5745 2.3359 12.0553 1.3364 9.61911 1.39095C7.18292 1.4455 4.82158 2.55058 2.71412 4.62523V4.63226ZM9.1732 3.26148C9.42651 3.26148 9.67413 3.3427 9.88475 3.49487C10.0954 3.64704 10.2595 3.86333 10.3565 4.11638C10.4534 4.36943 10.4788 4.64788 10.4293 4.91651C10.3799 5.18515 10.2579 5.43191 10.0788 5.62559C9.89971 5.81926 9.67151 5.95116 9.42307 6.00459C9.17463 6.05803 8.91711 6.0306 8.68308 5.92579C8.44906 5.82097 8.24903 5.64347 8.1083 5.41573C7.96757 5.18799 7.89245 4.92024 7.89245 4.64634C7.89224 4.46441 7.92522 4.28423 7.98951 4.11611C8.0538 3.94798 8.14813 3.79522 8.2671 3.66658C8.38607 3.53794 8.52734 3.43594 8.68283 3.36643C8.83831 3.29691 9.00495 3.26125 9.1732 3.26148Z" fill="#A7A7A7"/>
</svg>
