<svg width="18" height="24" viewBox="0 0 18 24" fill="none" xmlns="http://www.w3.org/2000/svg">
<g clip-path="url(#clip0_223_1055)">
<path fill-rule="evenodd" clip-rule="evenodd" d="M0.541641 10.9445H2.21957V10.7346V7.24941C2.21957 5.25625 3.00187 3.44395 4.26064 2.13086V2.1291C5.51998 0.81582 7.25821 0 9.17081 0C11.0819 0 12.8198 0.81582 14.0791 2.1291L14.081 2.13086C15.3397 3.44395 16.122 5.25625 16.122 7.24941V10.7346V10.9445H17.4585C17.7563 10.9445 18.0002 11.1988 18.0002 11.5092V23.4354C18.0002 23.7457 17.7563 24 17.4585 24H0.541641C0.243851 24 0 23.7457 0 23.4354V11.5092C0 11.1988 0.243851 10.9445 0.541641 10.9445ZM4.92028 10.9445H13.4208V10.7346V7.20918C13.4208 5.99043 12.9424 4.88164 12.1731 4.07832L12.1721 4.0791C11.4022 3.27559 10.3391 2.77656 9.17081 2.77656C8.00194 2.77656 6.93888 3.27539 6.168 4.07832C5.39843 4.88164 4.92028 5.99043 4.92028 7.20918V10.7348V10.9445ZM9.20508 17.4703L10.0631 21.599L7.71126 21.6094L8.40142 17.4252C7.75883 17.2104 7.29305 16.5824 7.29305 15.841C7.29305 14.9229 8.00662 14.1787 8.88744 14.1787C9.76732 14.1787 10.4815 14.9229 10.4815 15.841C10.4815 16.6457 9.93307 17.317 9.20508 17.4703Z" fill="#1EB7CF"/>
</g>
<defs>
<clipPath id="clip0_223_1055">
<rect width="18" height="24" fill="white"/>
</clipPath>
</defs>
</svg>
