<svg width="24" height="24" viewBox="0 0 24 24" fill="none" xmlns="http://www.w3.org/2000/svg">
<g clip-path="url(#clip0_340_2200)">
<path fill-rule="evenodd" clip-rule="evenodd" d="M0.689183 20.9961H3.13069V14.7344C3.16985 14.7344 3.20901 14.7344 3.24816 14.7344H3.26774H3.3069H3.34606H3.36564C4.46794 14.7344 5.49192 14.3809 6.29858 13.791L6.31816 13.8105H6.33774V13.8301L6.3769 13.8691L6.41605 13.8887L6.45521 13.9082V19.4414C9.84239 19.4414 13.8737 19.4414 17.2648 19.4414V14.166C17.443 14.0684 17.5996 13.9707 17.7758 13.8711L17.815 13.8516H17.8346H17.8541L17.8737 13.832L17.9129 13.8125C18.7195 14.4023 19.7435 14.7754 20.8654 14.7754V21.0156H23.3069C23.6809 21.0156 23.9961 21.6836 23.9961 22.5078C23.9961 23.332 23.6809 24 23.3069 24H0.689183C0.315223 24 0 23.332 0 22.5078C0 21.6816 0.315223 20.9961 0.689183 20.9961ZM4.15467 0H20.2389C20.6128 0 20.928 0.314453 20.928 0.6875C20.928 1.06055 20.6128 1.375 20.2389 1.375H4.15467C3.78071 1.375 3.46549 1.06055 3.46549 0.6875C3.46549 0.314453 3.78071 0 4.15467 0ZM23.9119 9.5918V10.3906C23.9119 10.4688 23.9315 10.5469 23.9315 10.627C23.9315 12.0215 22.6314 13.1406 21.0377 13.1406C19.442 13.1406 18.1439 12.0215 18.1439 10.627C18.1439 10.5684 18.1439 10.5098 18.1439 10.4492H18.0264C18.0264 10.5078 18.0264 10.5664 18.0264 10.627C18.0264 12.0215 16.7264 13.1406 15.1326 13.1406C13.5389 13.1406 12.2389 12.0215 12.2389 10.627C12.2389 10.5684 12.2389 10.5098 12.2389 10.4492H12.1214C12.1214 10.5078 12.1214 10.5664 12.1214 10.627C12.1214 12.0215 10.8213 13.1406 9.22761 13.1406C7.63191 13.1406 6.33382 12.0215 6.33382 10.627C6.33382 10.5684 6.33382 10.5098 6.33382 10.4492H6.25551C6.25551 10.5078 6.25551 10.5664 6.25551 10.627C6.25551 12.0215 4.95546 13.1406 3.36172 13.1406C1.76211 13.1406 0.462066 12.0215 0.462066 10.627C0.462066 10.5684 0.462066 10.4902 0.481645 10.4297V9.58984L3.37543 2.10156H21.0749L23.9119 9.5918ZM11.6065 3.34375H12.8654C13.1003 3.34375 13.2942 3.53516 13.2942 3.77148V5.39648H14.9251C15.1601 5.39648 15.3539 5.58789 15.3539 5.82422V7.08008C15.3539 7.31445 15.162 7.50781 14.9251 7.50781H13.2942V9.13281C13.2942 9.36719 13.1023 9.56055 12.8654 9.56055H11.6065C11.3715 9.56055 11.1777 9.36914 11.1777 9.13281V7.50781H9.5487C9.31375 7.50781 9.11992 7.31641 9.11992 7.08008V5.82422C9.11992 5.58984 9.3118 5.39648 9.5487 5.39648H11.1777V3.77148C11.1777 3.53711 11.3715 3.34375 11.6065 3.34375Z" fill="#1C3C6C"/>
</g>
<defs>
<clipPath id="clip0_340_2200">
<rect width="24" height="24" fill="white"/>
</clipPath>
</defs>
</svg>
