<svg width="25" height="26" viewBox="0 0 25 26" fill="none" xmlns="http://www.w3.org/2000/svg">
<path d="M5.89944 1.46535L4.67628 4.12597C4.64158 4.2019 4.58416 4.267 4.51084 4.31354C4.43751 4.36007 4.35136 4.38609 4.26259 4.38851L1.18784 4.64519L3.53417 6.5485C3.5973 6.59979 3.64429 6.66602 3.67015 6.74014C3.696 6.81426 3.69976 6.8935 3.68101 6.96944L2.98732 9.78994L5.66102 8.30513C5.73459 8.26447 5.81879 8.24341 5.90439 8.24428C5.98999 8.24514 6.07368 8.26789 6.14629 8.31002L7.42419 9.01991L7.20682 9.90385L5.89944 9.17783L3.1089 10.7272C3.02943 10.7731 2.94048 10.8049 2.84785 10.8205C2.75048 10.8362 2.64995 10.8347 2.55101 10.8142C2.3489 10.7717 2.18469 10.6568 2.08311 10.5072C1.981 10.3561 1.94048 10.1683 1.98679 9.98208L2.71364 7.02762L0.283626 5.05685C0.258363 5.03925 0.235205 5.0192 0.214152 4.9972C0.172046 4.9576 0.134678 4.91262 0.104151 4.86422L0.0809933 4.82706C0.0425721 4.75666 0.0162561 4.67892 0.00572978 4.5963L0.00151923 4.55572C-0.0111124 4.37238 0.05573 4.19931 0.175731 4.06632C0.294679 3.93383 0.467311 3.8429 0.663628 3.82187L3.92996 3.55102L5.21049 0.765726C5.24891 0.682612 5.30207 0.606831 5.36944 0.54474C5.42576 0.493405 5.4926 0.448426 5.56839 0.413714L5.60628 0.397091C5.79628 0.3218 6.00155 0.324733 6.17997 0.391713C6.35629 0.458204 6.50681 0.587764 6.58734 0.76377L7.64314 3.06065L6.6705 3.14132L5.89944 1.46535ZM11.3637 18.1062C11.3637 18.3336 11.1647 18.5184 10.92 18.5184C10.6753 18.5184 10.4763 18.3336 10.4763 18.1062V17.3445C10.4526 17.3328 10.43 17.3191 10.4084 17.3029L9.5542 16.6595L8.40261 15.782C8.1884 15.6177 7.94577 15.5043 7.7184 15.4622C7.57261 15.4353 7.43787 15.4383 7.33261 15.4783C7.24734 15.5106 7.17366 15.5747 7.12419 15.6768C7.05945 15.8093 7.02945 15.9995 7.04734 16.2547C7.06313 16.4816 7.1484 16.7309 7.26103 16.9685C7.42787 17.3205 7.65524 17.6432 7.82261 17.851L11.2189 22.6242C11.2572 22.6778 11.2812 22.7392 11.2889 22.8031C11.3563 23.3184 11.4742 23.7047 11.6479 23.9467C11.7742 24.1222 11.9379 24.2112 12.1416 24.2063C13.8632 24.2063 15.7311 24.1403 17.4342 24.2063C17.7611 24.2014 18.0606 24.1119 18.3311 23.9389C18.6332 23.7452 18.9095 23.4446 19.159 23.0393L19.2227 22.9381C19.8774 21.8899 20.5127 20.8724 20.5795 19.6644L20.5458 18.2636L20.5411 18.202L20.5458 17.872C20.5579 16.8468 20.5769 15.2774 19.659 15.1239H19.0642C19.0821 15.562 19.0548 16.0147 19.03 16.4258C19.0153 16.6683 19.0016 16.8937 19.0016 17.103C19.0016 17.3303 18.8027 17.5151 18.5574 17.5151C18.3127 17.5151 18.1137 17.3303 18.1137 17.103C18.1137 16.9089 18.1295 16.6542 18.1463 16.3804C18.2084 15.3591 18.2911 13.9931 17.5232 13.8576H16.9411C16.9027 13.8576 16.8648 13.8532 16.829 13.8444C16.8653 14.3363 16.8337 14.8574 16.8053 15.3239C16.7905 15.5668 16.7769 15.7922 16.7769 16.0015C16.7769 16.2288 16.5779 16.4136 16.3332 16.4136C16.0879 16.4136 15.889 16.2288 15.889 16.0015C15.889 15.8074 15.9048 15.5527 15.9216 15.2789C15.9837 14.2576 16.0663 12.8916 15.2984 12.7566H14.7163C14.6763 12.7566 14.6374 12.7517 14.6005 12.7424V14.8692C14.6005 15.097 14.4016 15.2813 14.1569 15.2813C13.9116 15.2813 13.7132 15.097 13.7132 14.8692V10.5898C13.7132 9.87305 13.3979 9.42033 12.9958 9.23161C12.8484 9.16267 12.6895 9.12747 12.5326 9.12747C12.3768 9.12747 12.2189 9.16169 12.0721 9.23063C11.6747 9.41837 11.3637 9.87305 11.3637 10.6069V18.1062ZM10.4763 16.2953V11.2195L8.6184 12.2511C8.53616 12.2966 8.43783 12.31 8.34498 12.2883C8.25213 12.2665 8.17235 12.2115 8.12314 12.1352C8.07511 12.0609 8.06002 11.9722 8.08103 11.8878L9.0884 7.79276L5.68155 5.02947C5.53155 4.90773 5.51628 4.69603 5.64786 4.55621C5.67957 4.52238 5.71827 4.49483 5.76167 4.47517C5.80507 4.45552 5.85228 4.44417 5.90049 4.4418L10.391 4.06779L12.1674 0.204951C12.2458 0.0338346 12.4579 -0.0458569 12.6416 0.02699C12.7321 0.06268 12.7989 0.128682 12.8337 0.206907L14.609 4.06779L19.1116 4.44327C19.31 4.45892 19.4574 4.62172 19.44 4.80604C19.4322 4.89244 19.3884 4.97259 19.3179 5.02947L15.9121 7.79276L16.9195 11.8878C16.9356 11.9531 16.9303 12.0214 16.9044 12.0839C16.8784 12.1464 16.8329 12.2003 16.7737 12.2386C16.7145 12.2769 16.6444 12.2979 16.5723 12.2989C16.5001 12.2999 16.4293 12.2809 16.369 12.2442L14.6005 11.262V11.946C14.6374 11.9367 14.6763 11.9323 14.7163 11.9323H15.3279C15.3632 11.9323 15.3969 11.9357 15.4295 11.9431C16.1642 12.0521 16.5305 12.5068 16.7037 13.0974C16.7721 13.0568 16.8542 13.0333 16.9411 13.0333H17.5527C17.5879 13.0333 17.6216 13.0372 17.6542 13.0441C18.4363 13.1604 18.8006 13.6679 18.9595 14.3143C18.9969 14.305 19.0363 14.2996 19.0769 14.2996H19.689C19.7237 14.2996 19.7579 14.3035 19.7906 14.3108C21.4695 14.5602 21.4453 16.5696 21.4295 17.8799C21.4274 18.4861 21.4569 19.0894 21.4637 19.6952C21.389 21.1086 20.699 22.213 19.9885 23.3507L19.9285 23.4485C19.6137 23.9589 19.249 24.349 18.8332 24.615C18.4127 24.8834 17.9474 25.0218 17.4384 25.0272L12.1521 25.0291C11.6242 25.0374 11.2147 24.8228 10.9137 24.4038C10.671 24.066 10.51 23.5932 10.4231 22.9977L7.1105 18.3409C6.91524 18.0979 6.64892 17.7195 6.44997 17.3C6.3005 16.9847 6.18681 16.6424 6.16313 16.3066C6.13523 15.9091 6.19523 15.5884 6.31681 15.3385C6.46787 15.0281 6.70892 14.8252 6.99997 14.7152C7.27155 14.6125 7.57892 14.5973 7.8884 14.6545C8.25893 14.723 8.64156 14.898 8.96735 15.1478L10.4763 16.2953ZM18 19.3886C18 19.2028 18.1627 19.0518 18.3627 19.0518C18.5621 19.0518 18.7248 19.2028 18.7248 19.3886V20.9277C18.7231 21.016 18.6843 21.1001 18.6165 21.162C18.5487 21.2239 18.4574 21.2586 18.3624 21.2586C18.2673 21.2586 18.1761 21.2239 18.1083 21.162C18.0405 21.1001 18.0016 21.016 18 20.9277V19.3886ZM15.859 18.7081C15.859 18.5228 16.0211 18.3717 16.2211 18.3717C16.4211 18.3717 16.5832 18.5228 16.5832 18.7081V20.9272C16.5832 21.113 16.4211 21.2641 16.2211 21.2641C16.0211 21.2641 15.859 21.113 15.859 20.9272V18.7081ZM19.789 0.765726L21.07 3.55102L24.3364 3.82187C24.5327 3.8429 24.7048 3.93383 24.8243 4.06632C24.9443 4.19882 25.0111 4.37238 24.9985 4.55572L24.9943 4.5963C24.9837 4.67892 24.9574 4.75666 24.919 4.82706L24.8953 4.86471C24.8653 4.91262 24.8285 4.95711 24.7869 4.99622C24.7658 5.01822 24.7422 5.03876 24.7164 5.05685L22.2864 7.02762L23.0132 9.98208C23.0595 10.1683 23.0185 10.3566 22.9169 10.5072C22.8645 10.5844 22.7962 10.6513 22.7159 10.704C22.6356 10.7567 22.5449 10.7941 22.449 10.8142C22.35 10.8347 22.249 10.8362 22.1522 10.8205C22.0597 10.8047 21.9711 10.7731 21.8911 10.7272L19.1006 9.17783L17.7979 9.90141L17.5774 9.01893L18.8537 8.31002C18.9263 8.26789 19.01 8.24514 19.0956 8.24428C19.1812 8.24341 19.2654 8.26447 19.339 8.30513L22.0127 9.78994L21.3185 6.96944C21.2821 6.81935 21.3332 6.65605 21.4658 6.5485L23.8122 4.64519L20.7374 4.38851C20.6486 4.38609 20.5625 4.36007 20.4892 4.31354C20.4158 4.267 20.3584 4.2019 20.3237 4.12597L19.1006 1.46535L18.3295 3.14229L17.3563 3.06114L18.4127 0.76377C18.4932 0.587764 18.6432 0.458693 18.8206 0.392202C18.9985 0.324733 19.2037 0.3218 19.3937 0.397091L19.4306 0.413225C19.5063 0.447937 19.5742 0.493405 19.63 0.545229C19.6979 0.606831 19.7506 0.682612 19.789 0.765726Z" fill="#1EB7CF"/>
</svg>
