<svg width="20" height="24" viewBox="0 0 20 24" fill="none" xmlns="http://www.w3.org/2000/svg">
<g clip-path="url(#clip0_235_1925)">
<path fill-rule="evenodd" clip-rule="evenodd" d="M0.428738 1.88145H7.42465V0.734375C7.42465 0.330469 7.73318 0 8.1115 0H11.974C12.3521 0 12.6608 0.330273 12.6608 0.734375V1.88164H19.5714C19.8076 1.88164 20.0002 2.08809 20.0002 2.34043V4.58926H0V2.34023C0 2.08789 0.192722 1.88145 0.428738 1.88145ZM1.58745 5.78223H18.5618C18.9156 5.78223 19.237 6.09453 19.205 6.47051L17.7684 23.3121C17.7367 23.6883 17.478 23.9998 17.1249 23.9998H3.00409C2.6508 23.9998 2.39176 23.6889 2.36034 23.3121L0.9437 6.47051C0.912279 6.09316 1.23324 5.78223 1.58745 5.78223ZM12.6186 8.39805H14.4209V21.1547H12.6186V8.39805ZM5.49341 8.39805H7.29586V21.1547H5.49341V8.39805ZM9.05557 8.39805H10.8584V21.1547H9.05557V8.39805Z" fill="#1EB7CF"/>
</g>
<defs>
<clipPath id="clip0_235_1925">
<rect width="20" height="24" fill="white"/>
</clipPath>
</defs>
</svg>
