<svg width="25" height="26" viewBox="0 0 25 26" fill="none" xmlns="http://www.w3.org/2000/svg">
<path d="M12.4964 1.23165e-05C15.3885 -0.000815348 18.1914 1.00242 20.4275 2.83875C22.6636 4.67509 24.1945 7.23089 24.7593 10.0706C25.3241 12.9104 24.8879 15.8584 23.525 18.4122C22.1621 20.966 19.9568 22.9677 17.285 24.0761C14.6132 25.1845 11.6402 25.3311 8.87252 24.4908C6.10487 23.6505 3.71389 21.8754 2.107 19.468C0.500108 17.0605 -0.223247 14.1697 0.0601966 11.2882C0.34364 8.4066 1.61634 5.7126 3.66143 3.66522C4.82005 2.50137 6.19711 1.57838 7.71337 0.949362C9.22962 0.32034 10.8552 -0.00229765 12.4964 1.23165e-05ZM13.1188 15.4387L10.1697 14.0805C9.85782 14.4438 9.44476 14.7056 8.98339 14.8325C8.52202 14.9593 8.03334 14.9455 7.57988 14.7927C7.12642 14.6399 6.72881 14.3551 6.43795 13.9748C6.14708 13.5944 5.97619 13.1358 5.94714 12.6577C5.91809 12.1796 6.03221 11.7036 6.27488 11.2908C6.51756 10.878 6.87775 10.5471 7.30937 10.3404C7.74099 10.1337 8.2244 10.0606 8.69772 10.1306C9.17105 10.2005 9.61276 10.4103 9.96633 10.733L13.0984 9.42368C13.0798 9.29898 13.0703 9.17307 13.07 9.04698C13.07 8.41165 13.3211 7.80213 13.7684 7.35156C14.2158 6.90098 14.8231 6.64596 15.4577 6.64219C15.8444 6.64084 16.2258 6.73293 16.5694 6.91064C16.913 7.08835 17.2088 7.34643 17.4315 7.66299C17.6542 7.97955 17.7973 8.34523 17.8487 8.729C17.9002 9.11277 17.8583 9.50329 17.7268 9.86742C17.5953 10.2316 17.378 10.5585 17.0933 10.8206C16.8086 11.0827 16.465 11.2722 16.0916 11.3729C15.7181 11.4737 15.3259 11.4827 14.9483 11.3993C14.5706 11.3159 14.2186 11.1425 13.9221 10.8938L10.7311 12.2174C10.7419 12.3097 10.748 12.4013 10.7494 12.4923L14.0666 14.0296C14.505 13.7213 15.0342 13.5692 15.5692 13.5979C16.1042 13.6265 16.6142 13.8342 17.0173 14.1877C17.4203 14.5411 17.6932 15.0198 17.7921 15.547C17.891 16.0742 17.8102 16.6194 17.5627 17.0952C17.3152 17.571 16.9153 17.9498 16.4271 18.1709C15.9389 18.3919 15.3907 18.4425 14.8704 18.3144C14.3501 18.1864 13.8878 17.8871 13.5576 17.4646C13.2275 17.0421 13.0486 16.5208 13.0496 15.9844C13.0503 15.8007 13.0714 15.6177 13.1127 15.4387H13.1188ZM19.9098 5.09059C18.1943 3.37441 15.9375 2.30684 13.5239 2.0698C11.1103 1.83275 8.68935 2.44088 6.67343 3.79058C4.65752 5.14028 3.1714 7.14803 2.4683 9.47174C1.7652 11.7955 1.88861 14.2914 2.81752 16.5342C3.74643 18.777 5.42335 20.628 7.56256 21.7717C9.70177 22.9155 12.1709 23.2813 14.5493 22.8067C16.9277 22.3321 19.0681 21.0466 20.6059 19.1692C22.1437 17.2918 22.9838 14.9386 22.9829 12.5106C22.9842 11.1321 22.7133 9.76692 22.186 8.49355C21.6586 7.22017 20.885 6.0637 19.9098 5.09059Z" fill="#1EB7CF"/>
</svg>
