<svg width="24" height="24" viewBox="0 0 24 24" fill="none" xmlns="http://www.w3.org/2000/svg">
<path d="M10.7107 9.68629L13.5607 6.83629C13.6099 6.78883 13.6491 6.73206 13.6761 6.66928C13.7031 6.60651 13.7173 6.53899 13.7179 6.47066C13.7185 6.40234 13.7055 6.33457 13.6796 6.27133C13.6537 6.20809 13.6155 6.15064 13.5672 6.10232C13.5189 6.05401 13.4614 6.0158 13.3982 5.98993C13.335 5.96406 13.2672 5.95105 13.1989 5.95165C13.1305 5.95225 13.063 5.96646 13.0002 5.99344C12.9375 6.02042 12.8807 6.05963 12.8332 6.10879L9.98324 8.95879C9.88677 9.05521 9.83255 9.18601 9.83252 9.32241C9.83248 9.4588 9.88663 9.58963 9.98306 9.6861C10.0795 9.78257 10.2103 9.83679 10.3467 9.83682C10.4831 9.83686 10.6139 9.78271 10.7104 9.68629H10.7107Z" fill="#1C3C6C"/>
<path d="M15.3642 9.26328C15.4883 9.26343 15.6097 9.22674 15.713 9.15787C15.8163 9.08899 15.8968 8.99101 15.9444 8.87634C15.992 8.76167 16.0045 8.63547 15.9803 8.5137C15.9561 8.39193 15.8963 8.28008 15.8085 8.19229C15.7208 8.10451 15.6089 8.04474 15.4871 8.02056C15.3654 7.99637 15.2392 8.00886 15.1245 8.05644C15.0098 8.10401 14.9118 8.18454 14.843 8.28783C14.7741 8.39111 14.7374 8.51251 14.7375 8.63666C14.7377 8.80279 14.8038 8.96206 14.9213 9.07953C15.0388 9.197 15.198 9.26309 15.3642 9.26328Z" fill="#1C3C6C"/>
<path d="M23.4855 10.7205H23.2774C23.2277 10.7204 23.1792 10.7056 23.138 10.6779C23.0968 10.6503 23.0646 10.6111 23.0456 10.5652C23.0266 10.5194 23.0216 10.4689 23.0312 10.4202C23.0408 10.3715 23.0646 10.3268 23.0996 10.2915L23.8496 9.54154C23.8974 9.49383 23.9353 9.43715 23.9612 9.37477C23.9871 9.31239 24.0004 9.24551 24.0004 9.17798C24.0004 9.11045 23.9871 9.04357 23.9612 8.98119C23.9353 8.91881 23.8974 8.86213 23.8496 8.81442L22.7396 7.70517C22.6558 7.62116 22.5454 7.56873 22.4273 7.55676C22.3092 7.5448 22.1906 7.57405 22.0916 7.63954C21.8635 7.79025 21.5959 7.87033 21.3225 7.86979C20.9812 7.86623 20.652 7.74246 20.3929 7.52025C20.1338 7.29803 19.9613 6.99159 19.9058 6.65479C19.88 6.48774 19.8885 6.31722 19.9305 6.15351C19.9725 5.9898 20.0473 5.83631 20.1502 5.70229C20.2164 5.60312 20.2462 5.48413 20.2347 5.36549C20.2231 5.24685 20.1709 5.13584 20.0869 5.05129L18.9495 3.91429C18.8657 3.83024 18.7554 3.77781 18.6374 3.76591C18.5193 3.75402 18.4007 3.78339 18.3019 3.84904C18.0734 4.00014 17.8055 4.08049 17.5316 4.08004C17.1909 4.07693 16.8622 3.95348 16.6036 3.7315C16.345 3.50951 16.1733 3.20329 16.1186 2.86692C16.0937 2.69897 16.1024 2.52773 16.1442 2.36318C16.1861 2.19862 16.2602 2.04404 16.3624 1.90842C16.4273 1.80947 16.4562 1.69118 16.4441 1.57345C16.4321 1.45572 16.3799 1.34571 16.2964 1.26192L15.1875 0.150793C15.1398 0.102989 15.083 0.0650661 15.0206 0.039192C14.9582 0.0133178 14.8913 0 14.8237 0C14.7562 0 14.6893 0.0133178 14.6269 0.039192C14.5645 0.0650661 14.5077 0.102989 14.46 0.150793L3.963 10.647C3.93979 10.6707 3.91213 10.6894 3.88162 10.7023C3.85112 10.7152 3.81836 10.7219 3.78525 10.722H0.5145C0.378306 10.722 0.247667 10.776 0.151223 10.8722C0.0547784 10.9684 0.000397068 11.0988 0 11.235V12.8048C0.000668398 12.9241 0.0425417 13.0395 0.118532 13.1315C0.194522 13.2235 0.299961 13.2864 0.417 13.3095C0.657416 13.3623 0.880077 13.4764 1.06329 13.6407C1.24651 13.8051 1.38403 14.0141 1.46246 14.2474C1.5409 14.4807 1.55757 14.7303 1.51085 14.972C1.46413 15.2136 1.35561 15.439 1.19587 15.6263C0.993563 15.859 0.713794 16.0104 0.408375 16.0527C0.293018 16.0773 0.189586 16.1408 0.115288 16.2324C0.0409894 16.324 0.000303829 16.4383 0 16.5563L0 18.1647C0.000668398 18.284 0.0425417 18.3994 0.118532 18.4914C0.194522 18.5833 0.299961 18.6462 0.417 18.6694C0.657452 18.7222 0.880141 18.8363 1.06337 19.0007C1.24659 19.1651 1.38411 19.3741 1.46251 19.6075C1.54091 19.8408 1.55752 20.0905 1.51073 20.3322C1.46393 20.5739 1.35533 20.7993 1.1955 20.9865C0.993436 21.2192 0.713953 21.3708 0.40875 21.4133C0.293449 21.4379 0.190027 21.5011 0.115669 21.5926C0.0413103 21.6841 0.000493274 21.7983 0 21.9162L0 23.4863C0 23.6227 0.0542061 23.7536 0.150694 23.8501C0.247181 23.9466 0.378046 24.0008 0.5145 24.0008H23.4855C23.622 24.0008 23.7528 23.9466 23.8493 23.8501C23.9458 23.7536 24 23.6227 24 23.4863V21.9162C23.9993 21.7965 23.9573 21.6808 23.881 21.5886C23.8047 21.4964 23.6989 21.4334 23.5815 21.4103C23.3414 21.3573 23.1191 21.243 22.9362 21.0786C22.7533 20.9142 22.6161 20.7052 22.5379 20.4721C22.4597 20.2389 22.4431 19.9895 22.4898 19.7481C22.5365 19.5067 22.645 19.2814 22.8045 19.0943C23.0068 18.8615 23.2865 18.7099 23.592 18.6675C23.7072 18.6428 23.8104 18.5795 23.8846 18.488C23.9588 18.3965 23.9995 18.2825 24 18.1647V16.5563C23.9992 16.4367 23.9571 16.3211 23.8809 16.2289C23.8046 16.1368 23.6988 16.0739 23.5815 16.0508C23.3414 15.9978 23.1191 15.8835 22.9362 15.7191C22.7533 15.5547 22.6161 15.3457 22.5379 15.1126C22.4597 14.8794 22.4431 14.63 22.4898 14.3886C22.5365 14.1472 22.645 13.9219 22.8045 13.7348C23.0068 13.502 23.2865 13.3503 23.592 13.3077C23.7073 13.2831 23.8106 13.2198 23.8849 13.1283C23.9591 13.0368 23.9998 12.9226 24 12.8048V11.235C23.9996 11.0987 23.9453 10.9681 23.8489 10.8717C23.7525 10.7753 23.6218 10.7209 23.4855 10.7205ZM5.775 10.2915L14.6453 1.42017C14.6686 1.39681 14.6963 1.37828 14.7268 1.36564C14.7573 1.353 14.79 1.34649 14.823 1.34649C14.856 1.34649 14.8887 1.353 14.9192 1.36564C14.9497 1.37828 14.9774 1.39681 15.0007 1.42017C15.0892 1.53267 15.3191 1.64742 15.2423 1.86454C15.1118 2.23129 15.0715 2.62403 15.1246 3.00964C15.1777 3.39526 15.3227 3.76246 15.5474 4.08029C15.7721 4.39813 16.07 4.65729 16.4158 4.83594C16.7617 5.01458 17.1454 5.10748 17.5346 5.10679C18.2674 5.10679 18.4058 4.82517 18.6079 5.02692C18.8494 5.31004 19.1156 5.41954 19.0324 5.65429C18.9021 6.02103 18.8617 6.4137 18.9148 6.79928C18.9678 7.18485 19.1127 7.55204 19.3372 7.86997C19.5617 8.18789 19.8593 8.44725 20.2049 8.62622C20.5505 8.80519 20.934 8.89854 21.3232 8.89842C22.0485 8.89842 22.1951 8.61604 22.3969 8.81704C22.4659 8.89579 22.8094 9.12604 22.5806 9.35517L21.8224 10.1145L21.45 10.4869C21.3759 10.561 21.2879 10.6198 21.1911 10.6599C21.0942 10.7 20.9904 10.7206 20.8856 10.7205H5.95088C5.9014 10.72 5.85316 10.7049 5.81221 10.6772C5.77126 10.6494 5.73941 10.6102 5.72064 10.5644C5.70187 10.5186 5.69702 10.4683 5.70669 10.4198C5.71635 10.3712 5.74012 10.3266 5.775 10.2915ZM22.971 12.2595C22.971 12.3039 22.9593 12.3474 22.9371 12.3858C22.9148 12.4241 22.8828 12.4559 22.8442 12.4778C22.5565 12.6127 22.2951 12.7977 22.0721 13.0242C21.8167 13.3062 21.6306 13.6439 21.5285 14.0104C21.4264 14.3769 21.4112 14.7622 21.484 15.1357C21.5568 15.5091 21.7156 15.8605 21.9479 16.1618C22.1802 16.4631 22.4795 16.7062 22.8221 16.8717C22.8664 16.8919 22.904 16.9242 22.9306 16.965C22.9571 17.0058 22.9715 17.0533 22.9721 17.1019V17.5677C22.9786 17.6244 22.9677 17.6817 22.9409 17.7321C22.9142 17.7825 22.8727 17.8237 22.8221 17.85C22.4795 18.0155 22.1802 18.2585 21.9479 18.5598C21.7156 18.8611 21.5568 19.2124 21.484 19.5858C21.4112 19.9593 21.4264 20.3445 21.5285 20.711C21.6306 21.0775 21.8167 21.4152 22.0721 21.6972C22.2952 21.9237 22.5567 22.1087 22.8446 22.2435C22.8832 22.2656 22.9152 22.2974 22.9374 22.3358C22.9597 22.3742 22.9714 22.4178 22.9714 22.4622C22.9556 22.5334 23.0573 22.9722 22.7201 22.9722H1.27988C0.933375 22.9722 1.04775 22.5473 1.029 22.4622C1.02901 22.4178 1.04073 22.3742 1.06299 22.3358C1.08525 22.2974 1.11724 22.2656 1.15575 22.2435C1.44365 22.1086 1.70523 21.9234 1.92825 21.6968C2.18348 21.4148 2.36948 21.0771 2.47148 20.7107C2.57349 20.3442 2.5887 19.9591 2.51591 19.5857C2.44312 19.2124 2.28433 18.8611 2.05214 18.5599C1.81994 18.2586 1.52074 18.0155 1.17825 17.85C1.13401 17.8298 1.09643 17.7974 1.06987 17.7567C1.04332 17.7159 1.02888 17.6684 1.02825 17.6198V17.1537C1.0217 17.097 1.03254 17.0397 1.05933 16.9893C1.08612 16.9389 1.1276 16.8979 1.17825 16.8717C1.52074 16.7061 1.81995 16.4631 2.05214 16.1617C2.28433 15.8604 2.44312 15.5091 2.51591 15.1358C2.5887 14.7624 2.57349 14.3772 2.47148 14.0107C2.36948 13.6443 2.18348 13.3066 1.92825 13.0245C1.70523 12.7979 1.44365 12.6128 1.15575 12.4778C1.11722 12.4559 1.0852 12.4241 1.06293 12.3858C1.04067 12.3474 1.02896 12.3039 1.029 12.2595C1.04475 12.1875 0.943125 11.7495 1.27988 11.7495H22.7197C23.0666 11.7495 22.9522 12.1744 22.971 12.2595Z" fill="#1C3C6C"/>
<path d="M5.82715 14.8133H18.1725C18.2412 14.8152 18.3096 14.8032 18.3736 14.7782C18.4377 14.7532 18.496 14.7156 18.5453 14.6677C18.5945 14.6197 18.6337 14.5624 18.6604 14.4991C18.6871 14.4358 18.7009 14.3677 18.7009 14.299C18.7009 14.2302 18.6871 14.1622 18.6604 14.0989C18.6337 14.0356 18.5945 13.9782 18.5453 13.9303C18.496 13.8824 18.4377 13.8448 18.3736 13.8198C18.3096 13.7947 18.2412 13.7828 18.1725 13.7847H5.82715C5.69315 13.7883 5.56585 13.8441 5.47235 13.9401C5.37886 14.0362 5.32654 14.1649 5.32654 14.299C5.32654 14.433 5.37886 14.5618 5.47235 14.6578C5.56585 14.7539 5.69315 14.8097 5.82715 14.8133Z" fill="#1C3C6C"/>
<path d="M18.1725 19.9092H5.82712C5.69067 19.9092 5.5598 19.9634 5.46332 20.0599C5.36683 20.1563 5.31262 20.2872 5.31262 20.4237C5.31262 20.5601 5.36683 20.691 5.46332 20.7875C5.5598 20.884 5.69067 20.9382 5.82712 20.9382H18.1725C18.309 20.9382 18.4398 20.884 18.5363 20.7875C18.6328 20.691 18.687 20.5601 18.687 20.4237C18.687 20.2872 18.6328 20.1563 18.5363 20.0599C18.4398 19.9634 18.309 19.9092 18.1725 19.9092Z" fill="#1C3C6C"/>
<path d="M5.82744 17.988C5.95153 17.988 6.07282 17.9512 6.17599 17.8823C6.27916 17.8134 6.35958 17.7154 6.40706 17.6008C6.45455 17.4861 6.46697 17.36 6.44276 17.2383C6.41855 17.1166 6.3588 17.0048 6.27106 16.917C6.18332 16.8293 6.07154 16.7696 5.94984 16.7453C5.82814 16.7211 5.702 16.7336 5.58736 16.781C5.47272 16.8285 5.37474 16.9089 5.3058 17.0121C5.23687 17.1153 5.20007 17.2366 5.20007 17.3607C5.20007 17.5271 5.26617 17.6866 5.38383 17.8043C5.50148 17.9219 5.66106 17.988 5.82744 17.988Z" fill="#1C3C6C"/>
<path d="M7.25769 17.3607C7.25762 17.4848 7.29436 17.6061 7.36327 17.7094C7.43217 17.8126 7.53015 17.8931 7.64481 17.9406C7.75946 17.9881 7.88563 18.0006 8.00737 17.9764C8.1291 17.9522 8.24092 17.8924 8.32869 17.8047C8.41645 17.7169 8.47621 17.6051 8.5004 17.4834C8.5246 17.3616 8.51214 17.2354 8.46461 17.1208C8.41708 17.0061 8.33661 16.9082 8.23338 16.8392C8.13015 16.7703 8.0088 16.7336 7.88469 16.7337C7.71843 16.7338 7.55901 16.7999 7.44144 16.9174C7.32388 17.035 7.25779 17.1944 7.25769 17.3607Z" fill="#1C3C6C"/>
<path d="M9.31543 17.3607C9.31536 17.4848 9.3521 17.6061 9.42101 17.7094C9.48991 17.8126 9.58789 17.8931 9.70255 17.9406C9.8172 17.9881 9.94338 18.0006 10.0651 17.9764C10.1868 17.9522 10.2987 17.8924 10.3864 17.8047C10.4742 17.7169 10.534 17.6051 10.5581 17.4834C10.5823 17.3616 10.5699 17.2354 10.5224 17.1208C10.4748 17.0061 10.3944 16.9082 10.2911 16.8392C10.1879 16.7703 10.0665 16.7336 9.94243 16.7337C9.77614 16.7337 9.61666 16.7997 9.49907 16.9173C9.38149 17.0349 9.31543 17.1944 9.31543 17.3607Z" fill="#1C3C6C"/>
<path d="M11.3727 17.3607C11.3726 17.4848 11.4093 17.6061 11.4782 17.7093C11.5471 17.8125 11.6451 17.893 11.7597 17.9406C11.8743 17.9881 12.0005 18.0006 12.1222 17.9764C12.2439 17.9522 12.3558 17.8925 12.4436 17.8048C12.5313 17.7171 12.5911 17.6053 12.6154 17.4836C12.6396 17.3619 12.6272 17.2357 12.5797 17.121C12.5322 17.0064 12.4518 16.9084 12.3487 16.8394C12.2455 16.7705 12.1242 16.7337 12.0001 16.7337C11.8337 16.7337 11.6742 16.7997 11.5566 16.9173C11.4389 17.0349 11.3728 17.1943 11.3727 17.3607Z" fill="#1C3C6C"/>
<path d="M13.4303 17.3607C13.4302 17.4848 13.467 17.6061 13.5358 17.7093C13.6047 17.8125 13.7027 17.893 13.8173 17.9406C13.932 17.9881 14.0581 18.0006 14.1798 17.9764C14.3016 17.9522 14.4134 17.8925 14.5012 17.8048C14.5889 17.7171 14.6487 17.6053 14.673 17.4836C14.6972 17.3619 14.6848 17.2357 14.6373 17.121C14.5899 17.0064 14.5094 16.9084 14.4063 16.8394C14.3031 16.7705 14.1818 16.7337 14.0577 16.7337C13.8914 16.7337 13.7318 16.7997 13.6142 16.9173C13.4965 17.0349 13.4304 17.1943 13.4303 17.3607Z" fill="#1C3C6C"/>
<path d="M15.4875 17.3607C15.4875 17.4848 15.5242 17.6061 15.5931 17.7093C15.662 17.8125 15.7599 17.893 15.8746 17.9406C15.9892 17.9881 16.1154 18.0006 16.2371 17.9764C16.3588 17.9522 16.4706 17.8925 16.5584 17.8048C16.6462 17.7171 16.706 17.6053 16.7302 17.4836C16.7545 17.3619 16.7421 17.2357 16.6946 17.121C16.6471 17.0064 16.5667 16.9084 16.4635 16.8394C16.3603 16.7705 16.239 16.7337 16.1149 16.7337C15.9486 16.7337 15.7891 16.7997 15.6714 16.9173C15.5538 17.0349 15.4876 17.1943 15.4875 17.3607Z" fill="#1C3C6C"/>
<path d="M18.1729 16.7337C18.0488 16.7336 17.9275 16.7703 17.8242 16.8392C17.721 16.9082 17.6405 17.0061 17.593 17.1208C17.5455 17.2354 17.533 17.3616 17.5572 17.4834C17.5814 17.6051 17.6412 17.7169 17.7289 17.8047C17.8167 17.8924 17.9285 17.9522 18.0502 17.9764C18.172 18.0006 18.2981 17.9881 18.4128 17.9406C18.5274 17.8931 18.6254 17.8126 18.6943 17.7094C18.7632 17.6061 18.8 17.4848 18.7999 17.3607C18.7999 17.1944 18.7339 17.0349 18.6163 16.9173C18.4987 16.7997 18.3392 16.7337 18.1729 16.7337Z" fill="#1C3C6C"/>
</svg>
